<mxfile host="Electron" modified="2023-11-16T09:36:14.323Z" agent="Mozilla/5.0 (Macintosh; Intel Mac OS X 10_15_7) AppleWebKit/537.36 (KHTML, like Gecko) draw.io/21.6.1 Chrome/112.0.5615.204 Electron/24.6.1 Safari/537.36" etag="3g3H5-5zEgEn2iHJt9lP" version="21.6.1" type="device">
  <diagram id="60j3HPYKAk5_ia8UwMvO" name="wot-bpmn">
    <mxGraphModel dx="1035" dy="1842" grid="1" gridSize="10" guides="1" tooltips="1" connect="1" arrows="1" fold="1" page="1" pageScale="1" pageWidth="827" pageHeight="1169" math="0" shadow="0">
      <root>
        <mxCell id="0" />
        <mxCell id="1" parent="0" />
        <mxCell id="VGzt8ICLMrnI1Oa5_CKK-1" value="&lt;font style=&quot;font-size: 18px;&quot; face=&quot;Open Sans&quot;&gt;W3C Web of Things Specification Generation Process&lt;/font&gt;" style="swimlane;html=1;childLayout=stackLayout;resizeParent=1;resizeParentMax=0;horizontal=0;startSize=20;horizontalStack=0;whiteSpace=wrap;fillColor=#eeeeee;strokeColor=#36393d;rounded=1;" parent="1" vertex="1">
          <mxGeometry x="4" y="4" width="1670" height="1000" as="geometry" />
        </mxCell>
        <mxCell id="VGzt8ICLMrnI1Oa5_CKK-2" value="&lt;font face=&quot;Open Sans&quot; style=&quot;font-size: 16px; font-weight: normal;&quot;&gt;Semantic Web Expert&lt;/font&gt;" style="swimlane;html=1;startSize=20;horizontal=0;rotation=0;fillColor=#eeeeee;strokeColor=#36393d;rounded=1;" parent="VGzt8ICLMrnI1Oa5_CKK-1" vertex="1">
          <mxGeometry x="20" width="1650" height="370" as="geometry" />
        </mxCell>
        <mxCell id="dqQZkA_G8O030KViG1e_-3" style="edgeStyle=orthogonalEdgeStyle;rounded=0;orthogonalLoop=1;jettySize=auto;html=1;exitX=0.999;exitY=0.446;exitDx=0;exitDy=0;exitPerimeter=0;entryX=0;entryY=0.5;entryDx=0;entryDy=0;entryPerimeter=0;fontFamily=Helvetica;fontSize=12;fontColor=default;strokeWidth=2;" parent="VGzt8ICLMrnI1Oa5_CKK-2" source="pAAA9KgtSf3Se2AW9XY_-3" target="GyIcix-912z4nd1oCBAl-30" edge="1">
          <mxGeometry relative="1" as="geometry" />
        </mxCell>
        <mxCell id="pAAA9KgtSf3Se2AW9XY_-3" value="" style="points=[[0.25,0,0],[0.5,0,0],[0.75,0,0],[1,0.25,0],[1,0.5,0],[1,0.75,0],[0.75,1,0],[0.5,1,0],[0.25,1,0],[0,0.75,0],[0,0.5,0],[0,0.25,0]];shape=mxgraph.bpmn.task;whiteSpace=wrap;rectStyle=rounded;size=10;html=1;container=1;expand=0;collapsible=0;taskMarker=abstract;isLoopStandard=1;isLoopSub=1;strokeWidth=2;fillColor=#eeeeee;strokeColor=#36393d;isLoopMultiParallel=0;isLoopMultiSeq=0;isAdHoc=1;" parent="VGzt8ICLMrnI1Oa5_CKK-2" vertex="1">
          <mxGeometry x="117" y="10" width="684" height="350" as="geometry" />
        </mxCell>
        <mxCell id="pAAA9KgtSf3Se2AW9XY_-5" value="&lt;font face=&quot;Open Sans&quot; style=&quot;font-size: 18px;&quot;&gt;Define WoT Specification&lt;/font&gt;" style="text;html=1;strokeColor=none;fillColor=none;align=center;verticalAlign=middle;whiteSpace=wrap;rounded=0;" parent="pAAA9KgtSf3Se2AW9XY_-3" vertex="1">
          <mxGeometry x="214.75" y="-3" width="237" height="30" as="geometry" />
        </mxCell>
        <mxCell id="pAAA9KgtSf3Se2AW9XY_-6" value="&lt;div style=&quot;font-size: 18px;&quot;&gt;1&lt;/div&gt;" style="ellipse;whiteSpace=wrap;html=1;aspect=fixed;fontFamily=Open Sans;fillColor=#D1D1D1;fontSize=18;spacing=2;spacingTop=1;verticalAlign=middle;align=center;horizontal=1;" parent="pAAA9KgtSf3Se2AW9XY_-3" vertex="1">
          <mxGeometry x="663.75" y="-0.37000000000000455" width="20.74009900990099" height="20.74009900990099" as="geometry" />
        </mxCell>
        <mxCell id="wIb-IDq65dvI-1YJ-4g0-31" value="" style="group" parent="pAAA9KgtSf3Se2AW9XY_-3" vertex="1" connectable="0">
          <mxGeometry x="149" y="108.5" width="120" height="80" as="geometry" />
        </mxCell>
        <mxCell id="wIb-IDq65dvI-1YJ-4g0-32" value="JSON-LD Context Specification" style="points=[[0.25,0,0],[0.5,0,0],[0.75,0,0],[1,0.25,0],[1,0.5,0],[1,0.75,0],[0.75,1,0],[0.5,1,0],[0.25,1,0],[0,0.75,0],[0,0.5,0],[0,0.25,0]];shape=mxgraph.bpmn.task;whiteSpace=wrap;rectStyle=rounded;size=10;html=1;taskMarker=user;fontFamily=Open Sans;fontSize=18;strokeWidth=1;fillColor=#dae8fc;strokeColor=#6c8ebf;container=0;isLoopStandard=1;" parent="wIb-IDq65dvI-1YJ-4g0-31" vertex="1">
          <mxGeometry width="120" height="80" as="geometry" />
        </mxCell>
        <mxCell id="wIb-IDq65dvI-1YJ-4g0-33" value="" style="group" parent="pAAA9KgtSf3Se2AW9XY_-3" vertex="1" connectable="0">
          <mxGeometry x="285.25" y="108.5" width="120" height="80" as="geometry" />
        </mxCell>
        <mxCell id="wIb-IDq65dvI-1YJ-4g0-34" value="JSON Schema Definition" style="points=[[0.25,0,0],[0.5,0,0],[0.75,0,0],[1,0.25,0],[1,0.5,0],[1,0.75,0],[0.75,1,0],[0.5,1,0],[0.25,1,0],[0,0.75,0],[0,0.5,0],[0,0.25,0]];shape=mxgraph.bpmn.task;whiteSpace=wrap;rectStyle=rounded;size=10;html=1;taskMarker=user;fontFamily=Open Sans;fontSize=18;strokeWidth=1;container=0;fillColor=#dae8fc;strokeColor=#6c8ebf;isLoopStandard=1;" parent="wIb-IDq65dvI-1YJ-4g0-33" vertex="1">
          <mxGeometry width="120" height="80" as="geometry" />
        </mxCell>
        <mxCell id="wIb-IDq65dvI-1YJ-4g0-37" value="&lt;font face=&quot;Open Sans&quot; style=&quot;font-size: 18px;&quot;&gt;JSON &lt;br&gt;Schema&lt;/font&gt;" style="shape=mxgraph.bpmn.data;labelPosition=center;verticalLabelPosition=bottom;align=center;verticalAlign=top;size=15;html=1;strokeWidth=2;" parent="pAAA9KgtSf3Se2AW9XY_-3" vertex="1">
          <mxGeometry x="360.5" y="225" width="40" height="60" as="geometry" />
        </mxCell>
        <mxCell id="wIb-IDq65dvI-1YJ-4g0-40" style="edgeStyle=orthogonalEdgeStyle;rounded=0;orthogonalLoop=1;jettySize=auto;html=1;entryX=0;entryY=0;entryDx=12.5;entryDy=0;entryPerimeter=0;dashed=1;strokeWidth=1;exitX=0.733;exitY=0.99;exitDx=0;exitDy=0;exitPerimeter=0;" parent="pAAA9KgtSf3Se2AW9XY_-3" source="wIb-IDq65dvI-1YJ-4g0-34" edge="1" target="wIb-IDq65dvI-1YJ-4g0-37">
          <mxGeometry relative="1" as="geometry">
            <mxPoint x="358" y="225.0000000000001" as="targetPoint" />
            <mxPoint x="358.5" y="195" as="sourcePoint" />
          </mxGeometry>
        </mxCell>
        <mxCell id="YkJWDijcgI-i0E84Un1S-24" style="edgeStyle=orthogonalEdgeStyle;rounded=0;orthogonalLoop=1;jettySize=auto;html=1;exitX=0.5;exitY=1;exitDx=0;exitDy=0;exitPerimeter=0;entryX=0;entryY=0;entryDx=12.5;entryDy=0;entryPerimeter=0;dashed=1;" edge="1" parent="pAAA9KgtSf3Se2AW9XY_-3" source="YkJWDijcgI-i0E84Un1S-22" target="YkJWDijcgI-i0E84Un1S-23">
          <mxGeometry relative="1" as="geometry" />
        </mxCell>
        <mxCell id="YkJWDijcgI-i0E84Un1S-22" value="Thing Model Schema" style="points=[[0.25,0,0],[0.5,0,0],[0.75,0,0],[1,0.25,0],[1,0.5,0],[1,0.75,0],[0.75,1,0],[0.5,1,0],[0.25,1,0],[0,0.75,0],[0,0.5,0],[0,0.25,0]];shape=mxgraph.bpmn.task;whiteSpace=wrap;rectStyle=rounded;size=10;html=1;taskMarker=user;fontFamily=Open Sans;fontSize=18;strokeWidth=1;fillColor=#dae8fc;strokeColor=#6c8ebf;container=0;isLoopStandard=1;" vertex="1" parent="pAAA9KgtSf3Se2AW9XY_-3">
          <mxGeometry x="421.25" y="108.5" width="120" height="80" as="geometry" />
        </mxCell>
        <mxCell id="YkJWDijcgI-i0E84Un1S-23" value="&lt;font face=&quot;Open Sans&quot; style=&quot;font-size: 18px;&quot;&gt;TM&lt;br&gt;Schema&lt;/font&gt;" style="shape=mxgraph.bpmn.data;labelPosition=center;verticalLabelPosition=bottom;align=center;verticalAlign=top;size=15;html=1;strokeWidth=2;" vertex="1" parent="pAAA9KgtSf3Se2AW9XY_-3">
          <mxGeometry x="469" y="225" width="40" height="60" as="geometry" />
        </mxCell>
        <mxCell id="GyIcix-912z4nd1oCBAl-1" value="" style="points=[[0.145,0.145,0],[0.5,0,0],[0.855,0.145,0],[1,0.5,0],[0.855,0.855,0],[0.5,1,0],[0.145,0.855,0],[0,0.5,0]];shape=mxgraph.bpmn.event;html=1;verticalLabelPosition=bottom;labelBackgroundColor=#ffffff;verticalAlign=top;align=center;perimeter=ellipsePerimeter;outlineConnect=0;aspect=fixed;outline=standard;symbol=general;fontFamily=Open Sans;fontSize=18;strokeWidth=2;fillColor=#d5e8d4;strokeColor=#000000;" parent="VGzt8ICLMrnI1Oa5_CKK-2" vertex="1">
          <mxGeometry x="26" y="146.5" width="45" height="45" as="geometry" />
        </mxCell>
        <mxCell id="GyIcix-912z4nd1oCBAl-8" value="" style="edgeStyle=elbowEdgeStyle;fontSize=18;html=1;endArrow=blockThin;endFill=1;rounded=0;fontFamily=Open Sans;exitX=1;exitY=0.5;exitDx=0;exitDy=0;exitPerimeter=0;strokeWidth=3;entryX=0;entryY=0.5;entryDx=0;entryDy=0;entryPerimeter=0;" parent="VGzt8ICLMrnI1Oa5_CKK-2" source="GyIcix-912z4nd1oCBAl-1" edge="1">
          <mxGeometry width="160" relative="1" as="geometry">
            <mxPoint x="93" y="80" as="sourcePoint" />
            <mxPoint x="117" y="169" as="targetPoint" />
          </mxGeometry>
        </mxCell>
        <mxCell id="GyIcix-912z4nd1oCBAl-45" value="ontology&lt;br style=&quot;border-color: var(--border-color);&quot;&gt;templates.sparql" style="shape=mxgraph.bpmn.data;labelPosition=center;verticalLabelPosition=bottom;align=center;verticalAlign=top;size=15;html=1;bpmnTransferType=none;isCollection=1;strokeWidth=2;fontFamily=Open Sans;fontSize=18;" parent="VGzt8ICLMrnI1Oa5_CKK-2" vertex="1">
          <mxGeometry x="1288" y="259" width="40" height="60" as="geometry" />
        </mxCell>
        <mxCell id="eGiD7hgd_W3EBSDkwFvs-4" value="" style="points=[[0.145,0.145,0],[0.5,0,0],[0.855,0.145,0],[1,0.5,0],[0.855,0.855,0],[0.5,1,0],[0.145,0.855,0],[0,0.5,0]];shape=mxgraph.bpmn.event;html=1;verticalLabelPosition=bottom;labelBackgroundColor=#ffffff;verticalAlign=top;align=center;perimeter=ellipsePerimeter;outlineConnect=0;aspect=fixed;outline=end;symbol=terminate2;fontFamily=Open Sans;fontSize=18;strokeWidth=2;fillColor=#d5e8d4;strokeColor=#000000;" parent="VGzt8ICLMrnI1Oa5_CKK-2" vertex="1">
          <mxGeometry x="1581" y="141" width="50" height="50" as="geometry" />
        </mxCell>
        <mxCell id="QsJUU_9gHce4eA45duxp-29" value="" style="shape=mxgraph.bpmn.data;labelPosition=center;verticalLabelPosition=bottom;align=center;verticalAlign=top;size=15;html=1;bpmnTransferType=output;isCollection=1;pointerEvents=0;fontFamily=Helvetica;fontSize=12;fontColor=default;fillColor=none;gradientColor=none;strokeWidth=2;" parent="VGzt8ICLMrnI1Oa5_CKK-2" vertex="1">
          <mxGeometry x="1586" y="259" width="40" height="60" as="geometry" />
        </mxCell>
        <mxCell id="QsJUU_9gHce4eA45duxp-39" value="&lt;font style=&quot;font-size: 18px;&quot; face=&quot;Open Sans&quot;&gt;PNGs&lt;/font&gt;" style="text;html=1;align=center;verticalAlign=middle;resizable=0;points=[];autosize=1;strokeColor=none;fillColor=none;fontSize=12;fontFamily=Helvetica;fontColor=default;" parent="VGzt8ICLMrnI1Oa5_CKK-2" vertex="1">
          <mxGeometry x="1571" y="319" width="70" height="40" as="geometry" />
        </mxCell>
        <mxCell id="GyIcix-912z4nd1oCBAl-41" value="templates.sparql" style="shape=mxgraph.bpmn.data;labelPosition=center;verticalLabelPosition=bottom;align=center;verticalAlign=top;size=15;html=1;bpmnTransferType=none;isCollection=1;strokeWidth=2;fontFamily=Open Sans;fontSize=18;" parent="VGzt8ICLMrnI1Oa5_CKK-2" vertex="1">
          <mxGeometry x="954" y="259" width="40" height="60" as="geometry" />
        </mxCell>
        <mxCell id="GyIcix-912z4nd1oCBAl-42" style="edgeStyle=orthogonalEdgeStyle;rounded=0;orthogonalLoop=1;jettySize=auto;html=1;exitX=0.5;exitY=1;exitDx=0;exitDy=0;exitPerimeter=0;entryX=0;entryY=0.5;entryDx=0;entryDy=0;entryPerimeter=0;dashed=1;" parent="VGzt8ICLMrnI1Oa5_CKK-2" source="GyIcix-912z4nd1oCBAl-30" target="GyIcix-912z4nd1oCBAl-41" edge="1">
          <mxGeometry relative="1" as="geometry" />
        </mxCell>
        <mxCell id="GyIcix-912z4nd1oCBAl-43" value="visualization&lt;br&gt;templates.sparql" style="shape=mxgraph.bpmn.data;labelPosition=center;verticalLabelPosition=bottom;align=center;verticalAlign=top;size=15;html=1;bpmnTransferType=none;isCollection=1;strokeWidth=2;fontFamily=Open Sans;fontSize=18;" parent="VGzt8ICLMrnI1Oa5_CKK-2" vertex="1">
          <mxGeometry x="1109" y="259" width="40" height="60" as="geometry" />
        </mxCell>
        <mxCell id="GyIcix-912z4nd1oCBAl-44" style="edgeStyle=orthogonalEdgeStyle;rounded=0;orthogonalLoop=1;jettySize=auto;html=1;exitX=0.5;exitY=1;exitDx=0;exitDy=0;exitPerimeter=0;entryX=0;entryY=0.5;entryDx=0;entryDy=0;entryPerimeter=0;dashed=1;" parent="VGzt8ICLMrnI1Oa5_CKK-2" source="GyIcix-912z4nd1oCBAl-33" target="GyIcix-912z4nd1oCBAl-43" edge="1">
          <mxGeometry relative="1" as="geometry" />
        </mxCell>
        <mxCell id="GyIcix-912z4nd1oCBAl-46" style="edgeStyle=orthogonalEdgeStyle;rounded=0;orthogonalLoop=1;jettySize=auto;html=1;exitX=0.786;exitY=0.985;exitDx=0;exitDy=0;exitPerimeter=0;entryX=0;entryY=0;entryDx=12.5;entryDy=0;entryPerimeter=0;dashed=1;" parent="VGzt8ICLMrnI1Oa5_CKK-2" source="GyIcix-912z4nd1oCBAl-36" target="GyIcix-912z4nd1oCBAl-45" edge="1">
          <mxGeometry relative="1" as="geometry" />
        </mxCell>
        <mxCell id="GyIcix-912z4nd1oCBAl-52" style="edgeStyle=orthogonalEdgeStyle;rounded=0;orthogonalLoop=1;jettySize=auto;html=1;exitX=0.75;exitY=1;exitDx=0;exitDy=0;exitPerimeter=0;entryX=0.016;entryY=0.262;entryDx=0;entryDy=0;entryPerimeter=0;dashed=1;" parent="VGzt8ICLMrnI1Oa5_CKK-2" source="GyIcix-912z4nd1oCBAl-48" target="QsJUU_9gHce4eA45duxp-29" edge="1">
          <mxGeometry relative="1" as="geometry">
            <mxPoint x="1575.52" y="282.22" as="targetPoint" />
          </mxGeometry>
        </mxCell>
        <mxCell id="eGiD7hgd_W3EBSDkwFvs-5" value="" style="edgeStyle=elbowEdgeStyle;fontSize=18;html=1;endArrow=blockThin;endFill=1;rounded=0;fontFamily=Open Sans;strokeWidth=2;exitX=1;exitY=0.5;exitDx=0;exitDy=0;exitPerimeter=0;" parent="VGzt8ICLMrnI1Oa5_CKK-2" source="GyIcix-912z4nd1oCBAl-48" target="eGiD7hgd_W3EBSDkwFvs-4" edge="1">
          <mxGeometry width="160" relative="1" as="geometry">
            <mxPoint x="1515.9999999999995" y="166" as="sourcePoint" />
            <mxPoint x="1472" y="226" as="targetPoint" />
          </mxGeometry>
        </mxCell>
        <mxCell id="GyIcix-912z4nd1oCBAl-36" value="Create Ontology Templates" style="points=[[0.25,0,0],[0.5,0,0],[0.75,0,0],[1,0.25,0],[1,0.5,0],[1,0.75,0],[0.75,1,0],[0.5,1,0],[0.25,1,0],[0,0.75,0],[0,0.5,0],[0,0.25,0]];shape=mxgraph.bpmn.task;whiteSpace=wrap;rectStyle=rounded;size=10;html=1;taskMarker=user;fontFamily=Open Sans;fontSize=18;strokeWidth=1;container=0;fillColor=#dae8fc;strokeColor=#6c8ebf;" parent="VGzt8ICLMrnI1Oa5_CKK-2" vertex="1">
          <mxGeometry x="1206" y="126" width="120" height="80" as="geometry" />
        </mxCell>
        <mxCell id="GyIcix-912z4nd1oCBAl-37" value="&lt;div style=&quot;font-size: 18px;&quot;&gt;4&lt;/div&gt;" style="ellipse;whiteSpace=wrap;html=1;aspect=fixed;fontFamily=Open Sans;fillColor=#D1D1D1;fontSize=18;spacing=2;spacingTop=1;verticalAlign=middle;align=center;horizontal=1;container=0;" parent="VGzt8ICLMrnI1Oa5_CKK-2" vertex="1">
          <mxGeometry x="1305" y="126" width="21" height="21" as="geometry" />
        </mxCell>
        <mxCell id="QsJUU_9gHce4eA45duxp-36" value="" style="group" parent="VGzt8ICLMrnI1Oa5_CKK-2" vertex="1" connectable="0">
          <mxGeometry x="854" y="126" width="120" height="80" as="geometry" />
        </mxCell>
        <mxCell id="GyIcix-912z4nd1oCBAl-30" value="Create templates" style="points=[[0.25,0,0],[0.5,0,0],[0.75,0,0],[1,0.25,0],[1,0.5,0],[1,0.75,0],[0.75,1,0],[0.5,1,0],[0.25,1,0],[0,0.75,0],[0,0.5,0],[0,0.25,0]];shape=mxgraph.bpmn.task;whiteSpace=wrap;rectStyle=rounded;size=10;html=1;taskMarker=user;fontFamily=Open Sans;fontSize=18;strokeWidth=1;container=0;fillColor=#dae8fc;strokeColor=#6c8ebf;" parent="QsJUU_9gHce4eA45duxp-36" vertex="1">
          <mxGeometry width="120" height="80" as="geometry" />
        </mxCell>
        <mxCell id="GyIcix-912z4nd1oCBAl-31" value="&lt;div style=&quot;font-size: 18px;&quot;&gt;2&lt;/div&gt;" style="ellipse;whiteSpace=wrap;html=1;aspect=fixed;fontFamily=Open Sans;fillColor=#D1D1D1;fontSize=18;spacing=2;spacingTop=1;verticalAlign=middle;align=center;horizontal=1;container=0;" parent="QsJUU_9gHce4eA45duxp-36" vertex="1">
          <mxGeometry x="99" width="21" height="21" as="geometry" />
        </mxCell>
        <mxCell id="QsJUU_9gHce4eA45duxp-37" value="" style="group" parent="VGzt8ICLMrnI1Oa5_CKK-2" vertex="1" connectable="0">
          <mxGeometry x="1029" y="126" width="120" height="80" as="geometry" />
        </mxCell>
        <mxCell id="GyIcix-912z4nd1oCBAl-33" value="Create Visualization Templates" style="points=[[0.25,0,0],[0.5,0,0],[0.75,0,0],[1,0.25,0],[1,0.5,0],[1,0.75,0],[0.75,1,0],[0.5,1,0],[0.25,1,0],[0,0.75,0],[0,0.5,0],[0,0.25,0]];shape=mxgraph.bpmn.task;whiteSpace=wrap;rectStyle=rounded;size=10;html=1;taskMarker=user;fontFamily=Open Sans;fontSize=18;strokeWidth=1;container=0;fillColor=#dae8fc;strokeColor=#6c8ebf;" parent="QsJUU_9gHce4eA45duxp-37" vertex="1">
          <mxGeometry width="120" height="80" as="geometry" />
        </mxCell>
        <mxCell id="GyIcix-912z4nd1oCBAl-34" value="&lt;div style=&quot;font-size: 18px;&quot;&gt;3&lt;/div&gt;" style="ellipse;whiteSpace=wrap;html=1;aspect=fixed;fontFamily=Open Sans;fillColor=#D1D1D1;fontSize=18;spacing=2;spacingTop=1;verticalAlign=middle;align=center;horizontal=1;container=0;" parent="QsJUU_9gHce4eA45duxp-37" vertex="1">
          <mxGeometry x="99" width="21" height="21" as="geometry" />
        </mxCell>
        <mxCell id="GyIcix-912z4nd1oCBAl-40" style="edgeStyle=orthogonalEdgeStyle;rounded=0;orthogonalLoop=1;jettySize=auto;html=1;exitX=1;exitY=0.5;exitDx=0;exitDy=0;exitPerimeter=0;entryX=0;entryY=0.5;entryDx=0;entryDy=0;entryPerimeter=0;strokeWidth=2;" parent="VGzt8ICLMrnI1Oa5_CKK-2" source="GyIcix-912z4nd1oCBAl-33" target="GyIcix-912z4nd1oCBAl-36" edge="1">
          <mxGeometry relative="1" as="geometry" />
        </mxCell>
        <mxCell id="GyIcix-912z4nd1oCBAl-39" style="edgeStyle=orthogonalEdgeStyle;rounded=0;orthogonalLoop=1;jettySize=auto;html=1;exitX=1;exitY=0.5;exitDx=0;exitDy=0;exitPerimeter=0;entryX=0;entryY=0.5;entryDx=0;entryDy=0;entryPerimeter=0;strokeWidth=2;" parent="VGzt8ICLMrnI1Oa5_CKK-2" source="GyIcix-912z4nd1oCBAl-30" target="GyIcix-912z4nd1oCBAl-33" edge="1">
          <mxGeometry relative="1" as="geometry" />
        </mxCell>
        <mxCell id="QsJUU_9gHce4eA45duxp-38" value="" style="group" parent="VGzt8ICLMrnI1Oa5_CKK-2" vertex="1" connectable="0">
          <mxGeometry x="1384" y="126" width="120" height="80" as="geometry" />
        </mxCell>
        <mxCell id="GyIcix-912z4nd1oCBAl-47" value="" style="group;fontSize=18;fillColor=default;container=0;" parent="QsJUU_9gHce4eA45duxp-38" vertex="1" connectable="0">
          <mxGeometry width="120" height="80" as="geometry" />
        </mxCell>
        <mxCell id="GyIcix-912z4nd1oCBAl-48" value="Convert SVG to PNG" style="points=[[0.25,0,0],[0.5,0,0],[0.75,0,0],[1,0.25,0],[1,0.5,0],[1,0.75,0],[0.75,1,0],[0.5,1,0],[0.25,1,0],[0,0.75,0],[0,0.5,0],[0,0.25,0]];shape=mxgraph.bpmn.task;whiteSpace=wrap;rectStyle=rounded;size=10;html=1;taskMarker=user;fontFamily=Open Sans;fontSize=18;strokeWidth=1;container=0;fillColor=#dae8fc;strokeColor=#6c8ebf;" parent="QsJUU_9gHce4eA45duxp-38" vertex="1">
          <mxGeometry width="120" height="80" as="geometry" />
        </mxCell>
        <mxCell id="GyIcix-912z4nd1oCBAl-49" value="&lt;div style=&quot;font-size: 18px;&quot;&gt;14&lt;/div&gt;" style="ellipse;whiteSpace=wrap;html=1;aspect=fixed;fontFamily=Open Sans;fillColor=#D1D1D1;fontSize=18;spacing=2;spacingTop=1;verticalAlign=middle;align=center;horizontal=1;container=0;" parent="QsJUU_9gHce4eA45duxp-38" vertex="1">
          <mxGeometry x="99" width="21" height="21" as="geometry" />
        </mxCell>
        <mxCell id="GyIcix-912z4nd1oCBAl-50" style="edgeStyle=orthogonalEdgeStyle;rounded=0;orthogonalLoop=1;jettySize=auto;html=1;exitX=1;exitY=0.5;exitDx=0;exitDy=0;exitPerimeter=0;strokeWidth=2;" parent="VGzt8ICLMrnI1Oa5_CKK-2" source="GyIcix-912z4nd1oCBAl-36" target="GyIcix-912z4nd1oCBAl-48" edge="1">
          <mxGeometry relative="1" as="geometry" />
        </mxCell>
        <mxCell id="VGzt8ICLMrnI1Oa5_CKK-3" value="&lt;font style=&quot;font-size: 16px; font-weight: normal;&quot; face=&quot;Open Sans&quot;&gt;WoT Toolchain&lt;/font&gt;" style="swimlane;html=1;startSize=20;horizontal=0;rotation=0;fillColor=#eeeeee;strokeColor=#36393d;rounded=1;swimlaneLine=1;glass=0;shadow=0;" parent="VGzt8ICLMrnI1Oa5_CKK-1" vertex="1">
          <mxGeometry x="20" y="370" width="1650" height="230" as="geometry" />
        </mxCell>
        <mxCell id="ePJhNjqC5I8l9NKkh14M-7" value="" style="edgeStyle=elbowEdgeStyle;fontSize=18;html=1;endArrow=blockThin;endFill=1;rounded=0;fontFamily=Open Sans;strokeWidth=3;entryX=0;entryY=0.5;entryDx=0;entryDy=0;entryPerimeter=0;exitX=1;exitY=0.5;exitDx=0;exitDy=0;exitPerimeter=0;" parent="VGzt8ICLMrnI1Oa5_CKK-3" source="ePJhNjqC5I8l9NKkh14M-2" target="ePJhNjqC5I8l9NKkh14M-5" edge="1">
          <mxGeometry width="160" relative="1" as="geometry">
            <mxPoint x="275" y="113" as="sourcePoint" />
            <mxPoint x="145.00000000000023" y="81.99999999999977" as="targetPoint" />
          </mxGeometry>
        </mxCell>
        <mxCell id="ePJhNjqC5I8l9NKkh14M-14" value="" style="edgeStyle=orthogonalEdgeStyle;fontSize=18;html=1;endFill=0;startFill=0;endSize=6;startSize=6;dashed=1;endArrow=none;startArrow=open;rounded=0;strokeWidth=1;fontFamily=Open Sans;entryX=0.25;entryY=1;entryDx=0;entryDy=0;entryPerimeter=0;exitX=-0.01;exitY=0.618;exitDx=0;exitDy=0;exitPerimeter=0;" parent="VGzt8ICLMrnI1Oa5_CKK-3" target="ePJhNjqC5I8l9NKkh14M-2" edge="1">
          <mxGeometry width="160" relative="1" as="geometry">
            <mxPoint x="246.5999999999999" y="173.07999999999993" as="sourcePoint" />
            <mxPoint x="139" y="142" as="targetPoint" />
            <Array as="points">
              <mxPoint x="165" y="173" />
            </Array>
          </mxGeometry>
        </mxCell>
        <mxCell id="ePJhNjqC5I8l9NKkh14M-15" value="" style="edgeStyle=orthogonalEdgeStyle;fontSize=18;html=1;endFill=0;startFill=0;endSize=6;startSize=6;dashed=1;endArrow=openThin;startArrow=none;rounded=0;strokeWidth=1;fontFamily=Open Sans;exitX=0;exitY=0;exitDx=40;exitDy=37.5;exitPerimeter=0;" parent="VGzt8ICLMrnI1Oa5_CKK-3" target="ePJhNjqC5I8l9NKkh14M-5" edge="1">
          <mxGeometry width="160" relative="1" as="geometry">
            <mxPoint x="287" y="173.5" as="sourcePoint" />
            <mxPoint x="319" y="112" as="targetPoint" />
            <Array as="points">
              <mxPoint x="359" y="174" />
            </Array>
          </mxGeometry>
        </mxCell>
        <mxCell id="ePJhNjqC5I8l9NKkh14M-17" style="edgeStyle=orthogonalEdgeStyle;rounded=0;orthogonalLoop=1;jettySize=auto;html=1;exitX=0.75;exitY=1;exitDx=0;exitDy=0;exitPerimeter=0;entryX=0;entryY=0.5;entryDx=0;entryDy=0;entryPerimeter=0;dashed=1;" parent="VGzt8ICLMrnI1Oa5_CKK-3" source="ePJhNjqC5I8l9NKkh14M-5" target="ePJhNjqC5I8l9NKkh14M-20" edge="1">
          <mxGeometry relative="1" as="geometry">
            <mxPoint x="461.03999999999996" y="173.48000000000002" as="targetPoint" />
          </mxGeometry>
        </mxCell>
        <mxCell id="ePJhNjqC5I8l9NKkh14M-19" value="&lt;font face=&quot;Open Sans&quot; style=&quot;font-size: 18px;&quot;&gt;Context-1.1.jsonld&lt;/font&gt;" style="shape=mxgraph.bpmn.data;labelPosition=center;verticalLabelPosition=bottom;align=center;verticalAlign=top;size=15;html=1;bpmnTransferType=output;strokeWidth=2;" parent="VGzt8ICLMrnI1Oa5_CKK-3" vertex="1">
          <mxGeometry x="246" y="138" width="40" height="60" as="geometry" />
        </mxCell>
        <mxCell id="ePJhNjqC5I8l9NKkh14M-20" value="&lt;font face=&quot;Open Sans&quot; style=&quot;font-size: 18px;&quot;&gt;Context-1.1.ttl&lt;/font&gt;" style="shape=mxgraph.bpmn.data;labelPosition=center;verticalLabelPosition=bottom;align=center;verticalAlign=top;size=15;html=1;strokeWidth=2;" parent="VGzt8ICLMrnI1Oa5_CKK-3" vertex="1">
          <mxGeometry x="471" y="138" width="40" height="60" as="geometry" />
        </mxCell>
        <mxCell id="xxQQzT2fasCZ5W7c505E-2" style="edgeStyle=orthogonalEdgeStyle;rounded=0;orthogonalLoop=1;jettySize=auto;html=1;entryX=0;entryY=0.5;entryDx=0;entryDy=0;entryPerimeter=0;strokeWidth=2;" parent="VGzt8ICLMrnI1Oa5_CKK-3" source="xxQQzT2fasCZ5W7c505E-1" target="ePJhNjqC5I8l9NKkh14M-2" edge="1">
          <mxGeometry relative="1" as="geometry" />
        </mxCell>
        <mxCell id="xxQQzT2fasCZ5W7c505E-1" value="" style="points=[[0.145,0.145,0],[0.5,0,0],[0.855,0.145,0],[1,0.5,0],[0.855,0.855,0],[0.5,1,0],[0.145,0.855,0],[0,0.5,0]];shape=mxgraph.bpmn.event;html=1;verticalLabelPosition=bottom;labelBackgroundColor=#ffffff;verticalAlign=top;align=center;perimeter=ellipsePerimeter;outlineConnect=0;aspect=fixed;outline=standard;symbol=message;fillColor=#d5e8d4;strokeColor=#000000;" parent="VGzt8ICLMrnI1Oa5_CKK-3" vertex="1">
          <mxGeometry x="26" y="47" width="50" height="50" as="geometry" />
        </mxCell>
        <mxCell id="XGOKVKMuQb5bFnaV05zs-4" style="edgeStyle=orthogonalEdgeStyle;rounded=0;orthogonalLoop=1;jettySize=auto;html=1;exitX=0.858;exitY=1.013;exitDx=0;exitDy=0;exitPerimeter=0;dashed=1;entryX=0;entryY=0.5;entryDx=0;entryDy=0;entryPerimeter=0;" parent="VGzt8ICLMrnI1Oa5_CKK-3" source="XGOKVKMuQb5bFnaV05zs-2" target="XGOKVKMuQb5bFnaV05zs-5" edge="1">
          <mxGeometry relative="1" as="geometry">
            <mxPoint x="746" y="157" as="targetPoint" />
          </mxGeometry>
        </mxCell>
        <mxCell id="XGOKVKMuQb5bFnaV05zs-5" value="&lt;font face=&quot;Open Sans&quot; style=&quot;font-size: 18px;&quot;&gt;SVGs&lt;/font&gt;" style="shape=mxgraph.bpmn.data;labelPosition=center;verticalLabelPosition=bottom;align=center;verticalAlign=top;size=15;html=1;bpmnTransferType=none;isCollection=1;strokeWidth=2;" parent="VGzt8ICLMrnI1Oa5_CKK-3" vertex="1">
          <mxGeometry x="1026" y="138" width="40" height="60" as="geometry" />
        </mxCell>
        <mxCell id="QsJUU_9gHce4eA45duxp-21" value="" style="group" parent="VGzt8ICLMrnI1Oa5_CKK-3" vertex="1" connectable="0">
          <mxGeometry x="135" y="32" width="120" height="80" as="geometry" />
        </mxCell>
        <mxCell id="ePJhNjqC5I8l9NKkh14M-2" value="Merge Context" style="points=[[0.25,0,0],[0.5,0,0],[0.75,0,0],[1,0.25,0],[1,0.5,0],[1,0.75,0],[0.75,1,0],[0.5,1,0],[0.25,1,0],[0,0.75,0],[0,0.5,0],[0,0.25,0]];shape=mxgraph.bpmn.task;whiteSpace=wrap;rectStyle=rounded;size=10;html=1;taskMarker=script;fontFamily=Open Sans;fontSize=18;strokeWidth=1;container=0;fillColor=#dae8fc;strokeColor=#6c8ebf;" parent="QsJUU_9gHce4eA45duxp-21" vertex="1">
          <mxGeometry width="120" height="80" as="geometry" />
        </mxCell>
        <mxCell id="eGiD7hgd_W3EBSDkwFvs-21" value="&lt;div style=&quot;font-size: 18px;&quot;&gt;5&lt;/div&gt;" style="ellipse;whiteSpace=wrap;html=1;aspect=fixed;fontFamily=Open Sans;fillColor=#D1D1D1;fontSize=18;spacing=2;spacingTop=1;verticalAlign=middle;align=center;horizontal=1;container=0;" parent="QsJUU_9gHce4eA45duxp-21" vertex="1">
          <mxGeometry x="99" width="21" height="21" as="geometry" />
        </mxCell>
        <mxCell id="QsJUU_9gHce4eA45duxp-22" value="" style="group" parent="VGzt8ICLMrnI1Oa5_CKK-3" vertex="1" connectable="0">
          <mxGeometry x="328" y="32" width="120" height="80" as="geometry" />
        </mxCell>
        <mxCell id="ePJhNjqC5I8l9NKkh14M-5" value="Convert Context to TTL Representation" style="points=[[0.25,0,0],[0.5,0,0],[0.75,0,0],[1,0.25,0],[1,0.5,0],[1,0.75,0],[0.75,1,0],[0.5,1,0],[0.25,1,0],[0,0.75,0],[0,0.5,0],[0,0.25,0]];shape=mxgraph.bpmn.task;whiteSpace=wrap;rectStyle=rounded;size=10;html=1;taskMarker=script;fontFamily=Open Sans;fontSize=18;strokeWidth=1;container=0;fillColor=#dae8fc;strokeColor=#6c8ebf;" parent="QsJUU_9gHce4eA45duxp-22" vertex="1">
          <mxGeometry width="120" height="80" as="geometry" />
        </mxCell>
        <mxCell id="eGiD7hgd_W3EBSDkwFvs-22" value="&lt;div style=&quot;font-size: 18px;&quot;&gt;6&lt;/div&gt;" style="ellipse;whiteSpace=wrap;html=1;aspect=fixed;fontFamily=Open Sans;fillColor=#D1D1D1;fontSize=18;spacing=2;spacingTop=1;verticalAlign=middle;align=center;horizontal=1;container=0;" parent="QsJUU_9gHce4eA45duxp-22" vertex="1">
          <mxGeometry x="99" width="21" height="21" as="geometry" />
        </mxCell>
        <mxCell id="XGOKVKMuQb5bFnaV05zs-2" value="GraphViz" style="points=[[0.25,0,0],[0.5,0,0],[0.75,0,0],[1,0.25,0],[1,0.5,0],[1,0.75,0],[0.75,1,0],[0.5,1,0],[0.25,1,0],[0,0.75,0],[0,0.5,0],[0,0.25,0]];shape=mxgraph.bpmn.task;whiteSpace=wrap;rectStyle=rounded;size=10;html=1;taskMarker=service;fontFamily=Open Sans;fontSize=18;strokeWidth=1;container=0;fillColor=#dae8fc;strokeColor=#6c8ebf;" parent="VGzt8ICLMrnI1Oa5_CKK-3" vertex="1">
          <mxGeometry x="896" y="32" width="120" height="80" as="geometry" />
        </mxCell>
        <mxCell id="XGOKVKMuQb5bFnaV05zs-3" value="&lt;div style=&quot;font-size: 18px;&quot;&gt;&lt;span style=&quot;background-color: initial; font-size: 18px;&quot;&gt;13&lt;/span&gt;&lt;/div&gt;" style="ellipse;whiteSpace=wrap;html=1;aspect=fixed;fontFamily=Open Sans;fillColor=#D1D1D1;fontSize=18;spacing=2;spacingTop=1;verticalAlign=middle;align=center;horizontal=1;container=0;" parent="VGzt8ICLMrnI1Oa5_CKK-3" vertex="1">
          <mxGeometry x="995" y="32" width="21" height="21" as="geometry" />
        </mxCell>
        <mxCell id="I83g9tMTKQP8WQ6yMkW9-1" style="edgeStyle=orthogonalEdgeStyle;rounded=0;orthogonalLoop=1;jettySize=auto;html=1;entryX=0.75;entryY=0;entryDx=0;entryDy=0;entryPerimeter=0;exitX=-0.043;exitY=0.824;exitDx=0;exitDy=0;exitPerimeter=0;dashed=1;" parent="VGzt8ICLMrnI1Oa5_CKK-1" source="ePJhNjqC5I8l9NKkh14M-20" target="j38e2xBNTlvkhbtnWXw8-3" edge="1">
          <mxGeometry relative="1" as="geometry">
            <Array as="points">
              <mxPoint x="436" y="551" />
              <mxPoint x="436" y="636" />
              <mxPoint x="250" y="636" />
            </Array>
          </mxGeometry>
        </mxCell>
        <mxCell id="XGOKVKMuQb5bFnaV05zs-7" style="edgeStyle=orthogonalEdgeStyle;rounded=0;orthogonalLoop=1;jettySize=auto;html=1;exitX=0.5;exitY=1;exitDx=0;exitDy=0;exitPerimeter=0;entryX=0.324;entryY=-0.001;entryDx=0;entryDy=0;entryPerimeter=0;strokeWidth=2;" parent="VGzt8ICLMrnI1Oa5_CKK-1" source="ePJhNjqC5I8l9NKkh14M-5" target="j38e2xBNTlvkhbtnWXw8-3" edge="1">
          <mxGeometry relative="1" as="geometry">
            <Array as="points">
              <mxPoint x="408" y="626" />
              <mxPoint x="199" y="626" />
            </Array>
          </mxGeometry>
        </mxCell>
        <mxCell id="XGOKVKMuQb5bFnaV05zs-9" style="edgeStyle=orthogonalEdgeStyle;rounded=0;orthogonalLoop=1;jettySize=auto;html=1;strokeWidth=2;exitX=0.142;exitY=0.013;exitDx=0;exitDy=0;exitPerimeter=0;" parent="VGzt8ICLMrnI1Oa5_CKK-1" source="qNmAvK00ZiZSQiN0OZeG-18" target="XGOKVKMuQb5bFnaV05zs-2" edge="1">
          <mxGeometry relative="1" as="geometry">
            <mxPoint x="956" y="786" as="sourcePoint" />
            <Array as="points">
              <mxPoint x="975" y="792" />
              <mxPoint x="976" y="792" />
            </Array>
          </mxGeometry>
        </mxCell>
        <mxCell id="eGiD7hgd_W3EBSDkwFvs-13" style="edgeStyle=orthogonalEdgeStyle;rounded=0;orthogonalLoop=1;jettySize=auto;html=1;exitX=-0.009;exitY=0.826;exitDx=0;exitDy=0;exitPerimeter=0;entryX=0;entryY=0;entryDx=12.5;entryDy=0;entryPerimeter=0;dashed=1;" parent="VGzt8ICLMrnI1Oa5_CKK-1" source="QsJUU_9gHce4eA45duxp-29" target="eGiD7hgd_W3EBSDkwFvs-9" edge="1">
          <mxGeometry relative="1" as="geometry">
            <mxPoint x="1596" y="293.5" as="sourcePoint" />
            <mxPoint x="1198.49" y="661" as="targetPoint" />
            <Array as="points">
              <mxPoint x="1496" y="294" />
              <mxPoint x="1496" y="566" />
              <mxPoint x="1236" y="566" />
              <mxPoint x="1236" y="661" />
            </Array>
          </mxGeometry>
        </mxCell>
        <mxCell id="eGiD7hgd_W3EBSDkwFvs-17" style="edgeStyle=orthogonalEdgeStyle;rounded=0;orthogonalLoop=1;jettySize=auto;html=1;exitX=0;exitY=0.5;exitDx=0;exitDy=0;exitPerimeter=0;entryX=0.703;entryY=1.029;entryDx=0;entryDy=0;entryPerimeter=0;dashed=1;" parent="VGzt8ICLMrnI1Oa5_CKK-1" source="m--Rm10WW4JqGCNbjd-S-1" target="XGOKVKMuQb5bFnaV05zs-2" edge="1">
          <mxGeometry relative="1" as="geometry" />
        </mxCell>
        <mxCell id="VGzt8ICLMrnI1Oa5_CKK-4" value="&lt;span style=&quot;font-weight: normal;&quot;&gt;&lt;font face=&quot;Open Sans&quot; style=&quot;font-size: 16px;&quot;&gt;SPARQL Transformation Language Engine&lt;/font&gt;&lt;/span&gt;" style="swimlane;html=1;startSize=20;horizontal=0;rotation=0;fillColor=#eeeeee;strokeColor=#36393d;rounded=1;swimlaneLine=1;" parent="VGzt8ICLMrnI1Oa5_CKK-1" vertex="1">
          <mxGeometry x="20" y="600" width="1650" height="400" as="geometry">
            <mxRectangle x="20" y="220" width="800" height="30" as="alternateBounds" />
          </mxGeometry>
        </mxCell>
        <mxCell id="_WOvtQiHd2VFELGf8nYZ-2" style="edgeStyle=orthogonalEdgeStyle;rounded=0;orthogonalLoop=1;jettySize=auto;html=1;exitX=0.99;exitY=0.521;exitDx=0;exitDy=0;exitPerimeter=0;entryX=0.03;entryY=0.482;entryDx=0;entryDy=0;dashed=1;entryPerimeter=0;" parent="VGzt8ICLMrnI1Oa5_CKK-4" source="j38e2xBNTlvkhbtnWXw8-9" target="_WOvtQiHd2VFELGf8nYZ-1" edge="1">
          <mxGeometry relative="1" as="geometry">
            <Array as="points">
              <mxPoint x="555" y="95" />
              <mxPoint x="556" y="95" />
              <mxPoint x="556" y="76" />
              <mxPoint x="686" y="76" />
            </Array>
          </mxGeometry>
        </mxCell>
        <mxCell id="j38e2xBNTlvkhbtnWXw8-9" value="&lt;font face=&quot;Open Sans&quot; style=&quot;font-size: 18px;&quot;&gt;Load Artifacts in RDF Store&lt;/font&gt;" style="points=[[0.25,0,0],[0.5,0,0],[0.75,0,0],[1,0.25,0],[1,0.5,0],[1,0.75,0],[0.75,1,0],[0.5,1,0],[0.25,1,0],[0,0.75,0],[0,0.5,0],[0,0.25,0]];shape=mxgraph.bpmn.task;whiteSpace=wrap;rectStyle=rounded;size=10;html=1;container=0;expand=0;collapsible=0;taskMarker=service;fillColor=#dae8fc;strokeColor=#6c8ebf;" parent="VGzt8ICLMrnI1Oa5_CKK-4" vertex="1">
          <mxGeometry x="437" y="32" width="120" height="80" as="geometry" />
        </mxCell>
        <mxCell id="Fm6DQhmWVcWw036a1YwF-5" style="edgeStyle=orthogonalEdgeStyle;rounded=0;orthogonalLoop=1;jettySize=auto;html=1;exitX=0;exitY=0;exitDx=40;exitDy=37.5;exitPerimeter=0;entryX=0;entryY=0.5;entryDx=0;entryDy=0;entryPerimeter=0;dashed=1;" parent="VGzt8ICLMrnI1Oa5_CKK-4" source="Fm6DQhmWVcWw036a1YwF-4" target="j38e2xBNTlvkhbtnWXw8-3" edge="1">
          <mxGeometry relative="1" as="geometry" />
        </mxCell>
        <mxCell id="Fm6DQhmWVcWw036a1YwF-4" value="&lt;font face=&quot;Open Sans&quot; style=&quot;font-size: 18px;&quot;&gt;ontologies,&lt;br&gt;shacl shapes,&lt;br&gt;json-schema, &lt;br&gt;templates&lt;/font&gt;" style="shape=mxgraph.bpmn.data;labelPosition=center;verticalLabelPosition=bottom;align=center;verticalAlign=top;size=15;html=1;bpmnTransferType=input;isCollection=1;" parent="VGzt8ICLMrnI1Oa5_CKK-4" vertex="1">
          <mxGeometry x="55" y="69" width="40" height="60" as="geometry" />
        </mxCell>
        <mxCell id="_WOvtQiHd2VFELGf8nYZ-6" style="edgeStyle=orthogonalEdgeStyle;rounded=0;orthogonalLoop=1;jettySize=auto;html=1;exitX=0;exitY=0;exitDx=40;exitDy=37.5;exitPerimeter=0;entryX=0.5;entryY=1;entryDx=0;entryDy=0;entryPerimeter=0;dashed=1;" parent="VGzt8ICLMrnI1Oa5_CKK-4" source="EyZLDFSQ_OWtmv0qqwht-1" target="_WOvtQiHd2VFELGf8nYZ-4" edge="1">
          <mxGeometry relative="1" as="geometry" />
        </mxCell>
        <mxCell id="EyZLDFSQ_OWtmv0qqwht-1" value="&lt;font face=&quot;Open Sans&quot; style=&quot;font-size: 18px;&quot;&gt;Parsed Template Object&lt;/font&gt;" style="shape=mxgraph.bpmn.data;labelPosition=center;verticalLabelPosition=bottom;align=center;verticalAlign=top;size=15;html=1;bpmnTransferType=none;isCollection=1;strokeWidth=2;" parent="VGzt8ICLMrnI1Oa5_CKK-4" vertex="1">
          <mxGeometry x="586" y="310" width="40" height="60" as="geometry" />
        </mxCell>
        <mxCell id="EyZLDFSQ_OWtmv0qqwht-2" style="edgeStyle=orthogonalEdgeStyle;rounded=0;orthogonalLoop=1;jettySize=auto;html=1;exitX=0.75;exitY=1;exitDx=0;exitDy=0;exitPerimeter=0;entryX=-0.003;entryY=0.739;entryDx=0;entryDy=0;entryPerimeter=0;dashed=1;" parent="VGzt8ICLMrnI1Oa5_CKK-4" source="j38e2xBNTlvkhbtnWXw8-18" target="EyZLDFSQ_OWtmv0qqwht-1" edge="1">
          <mxGeometry relative="1" as="geometry" />
        </mxCell>
        <mxCell id="_WOvtQiHd2VFELGf8nYZ-7" style="edgeStyle=orthogonalEdgeStyle;rounded=0;orthogonalLoop=1;jettySize=auto;html=1;exitX=0;exitY=0;exitDx=12.5;exitDy=0;exitPerimeter=0;entryX=0.5;entryY=0;entryDx=0;entryDy=0;entryPerimeter=0;dashed=1;" parent="VGzt8ICLMrnI1Oa5_CKK-4" source="mjFrUu6YgYIUu_FhYVlv-1" target="_WOvtQiHd2VFELGf8nYZ-4" edge="1">
          <mxGeometry relative="1" as="geometry" />
        </mxCell>
        <mxCell id="mjFrUu6YgYIUu_FhYVlv-1" value="URI" style="shape=mxgraph.bpmn.data;labelPosition=center;verticalLabelPosition=bottom;align=center;verticalAlign=top;size=15;html=1;bpmnTransferType=none;isCollection=0;strokeWidth=2;fontFamily=Open Sans;fontSize=18;" parent="VGzt8ICLMrnI1Oa5_CKK-4" vertex="1">
          <mxGeometry x="586" y="189" width="40" height="60" as="geometry" />
        </mxCell>
        <mxCell id="Ofl28no2zRaDtYhroZU3-4" style="edgeStyle=orthogonalEdgeStyle;rounded=0;orthogonalLoop=1;jettySize=auto;html=1;exitX=0.5;exitY=1;exitDx=0;exitDy=0;exitPerimeter=0;dashed=1;" parent="VGzt8ICLMrnI1Oa5_CKK-4" source="Ofl28no2zRaDtYhroZU3-2" target="mjFrUu6YgYIUu_FhYVlv-1" edge="1">
          <mxGeometry relative="1" as="geometry">
            <Array as="points">
              <mxPoint x="496" y="236" />
              <mxPoint x="586" y="236" />
            </Array>
          </mxGeometry>
        </mxCell>
        <mxCell id="eGiD7hgd_W3EBSDkwFvs-20" style="edgeStyle=orthogonalEdgeStyle;rounded=0;orthogonalLoop=1;jettySize=auto;html=1;exitX=1;exitY=0.5;exitDx=0;exitDy=0;entryX=0.079;entryY=-0.007;entryDx=0;entryDy=0;entryPerimeter=0;dashed=1;" parent="VGzt8ICLMrnI1Oa5_CKK-4" source="_WOvtQiHd2VFELGf8nYZ-1" target="qNmAvK00ZiZSQiN0OZeG-18" edge="1">
          <mxGeometry relative="1" as="geometry" />
        </mxCell>
        <mxCell id="_WOvtQiHd2VFELGf8nYZ-1" value="&lt;font face=&quot;Open Sans&quot; style=&quot;font-size: 18px;&quot;&gt;RDF Store&lt;/font&gt;" style="shape=datastore;html=1;labelPosition=center;verticalLabelPosition=bottom;align=center;verticalAlign=top;" parent="VGzt8ICLMrnI1Oa5_CKK-4" vertex="1">
          <mxGeometry x="706" y="44" width="64" height="68" as="geometry" />
        </mxCell>
        <mxCell id="U0CoPjeAjVxMIRqAVvUA-2" style="edgeStyle=orthogonalEdgeStyle;rounded=0;orthogonalLoop=1;jettySize=auto;html=1;exitX=0.572;exitY=0.006;exitDx=0;exitDy=0;exitPerimeter=0;entryX=1.014;entryY=0.57;entryDx=0;entryDy=0;entryPerimeter=0;dashed=1;" parent="VGzt8ICLMrnI1Oa5_CKK-4" source="qNmAvK00ZiZSQiN0OZeG-18" target="eGiD7hgd_W3EBSDkwFvs-9" edge="1">
          <mxGeometry relative="1" as="geometry">
            <mxPoint x="1225.6799999999998" y="90.88000000000011" as="targetPoint" />
          </mxGeometry>
        </mxCell>
        <mxCell id="m--Rm10WW4JqGCNbjd-S-2" style="edgeStyle=orthogonalEdgeStyle;rounded=0;orthogonalLoop=1;jettySize=auto;html=1;exitX=0.396;exitY=-0.003;exitDx=0;exitDy=0;exitPerimeter=0;entryX=1.004;entryY=0.567;entryDx=0;entryDy=0;entryPerimeter=0;dashed=1;" parent="VGzt8ICLMrnI1Oa5_CKK-4" source="qNmAvK00ZiZSQiN0OZeG-18" target="m--Rm10WW4JqGCNbjd-S-1" edge="1">
          <mxGeometry relative="1" as="geometry" />
        </mxCell>
        <mxCell id="eGiD7hgd_W3EBSDkwFvs-12" style="edgeStyle=orthogonalEdgeStyle;rounded=0;orthogonalLoop=1;jettySize=auto;html=1;exitX=0.75;exitY=0;exitDx=0;exitDy=0;exitPerimeter=0;entryX=0;entryY=0.5;entryDx=0;entryDy=0;entryPerimeter=0;dashed=1;" parent="VGzt8ICLMrnI1Oa5_CKK-4" source="qNmAvK00ZiZSQiN0OZeG-18" target="eGiD7hgd_W3EBSDkwFvs-10" edge="1">
          <mxGeometry relative="1" as="geometry" />
        </mxCell>
        <mxCell id="qNmAvK00ZiZSQiN0OZeG-18" value="" style="points=[[0.25,0,0],[0.5,0,0],[0.75,0,0],[1,0.25,0],[1,0.5,0],[1,0.75,0],[0.75,1,0],[0.5,1,0],[0.25,1,0],[0,0.75,0],[0,0.5,0],[0,0.25,0]];shape=mxgraph.bpmn.task;whiteSpace=wrap;rectStyle=rounded;size=10;html=1;container=1;expand=0;collapsible=0;taskMarker=abstract;isLoopStandard=1;isLoopSub=1;strokeWidth=2;fillColor=#eeeeee;strokeColor=#36393d;" parent="VGzt8ICLMrnI1Oa5_CKK-4" vertex="1">
          <mxGeometry x="842" y="193" width="798" height="160" as="geometry" />
        </mxCell>
        <mxCell id="qNmAvK00ZiZSQiN0OZeG-121" value="" style="points=[[0.145,0.145,0],[0.5,0,0],[0.855,0.145,0],[1,0.5,0],[0.855,0.855,0],[0.5,1,0],[0.145,0.855,0],[0,0.5,0]];shape=mxgraph.bpmn.event;html=1;verticalLabelPosition=bottom;labelBackgroundColor=#ffffff;verticalAlign=top;align=center;perimeter=ellipsePerimeter;outlineConnect=0;aspect=fixed;outline=end;symbol=terminate2;fontFamily=Open Sans;fontSize=18;strokeWidth=2;fillColor=#d5e8d4;strokeColor=#000000;" parent="qNmAvK00ZiZSQiN0OZeG-18" vertex="1">
          <mxGeometry x="742.9999999999999" y="49" width="49.38118811881188" height="49.38118811881188" as="geometry" />
        </mxCell>
        <mxCell id="qNmAvK00ZiZSQiN0OZeG-123" value="&lt;font face=&quot;Open Sans&quot; style=&quot;font-size: 18px;&quot;&gt;Apply Template&lt;/font&gt;" style="text;html=1;strokeColor=none;fillColor=none;align=center;verticalAlign=middle;whiteSpace=wrap;rounded=0;" parent="qNmAvK00ZiZSQiN0OZeG-18" vertex="1">
          <mxGeometry x="217" y="133" width="159.99999999999997" height="30" as="geometry" />
        </mxCell>
        <mxCell id="eGiD7hgd_W3EBSDkwFvs-32" value="&lt;div style=&quot;font-size: 18px;&quot;&gt;12&lt;/div&gt;" style="ellipse;whiteSpace=wrap;html=1;aspect=fixed;fontFamily=Open Sans;fillColor=#D1D1D1;fontSize=18;spacing=2;spacingTop=1;verticalAlign=middle;align=center;horizontal=1;" parent="qNmAvK00ZiZSQiN0OZeG-18" vertex="1">
          <mxGeometry x="777" width="20.74009900990099" height="20.74009900990099" as="geometry" />
        </mxCell>
        <mxCell id="qNmAvK00ZiZSQiN0OZeG-101" style="edgeStyle=orthogonalEdgeStyle;rounded=0;orthogonalLoop=1;jettySize=auto;html=1;exitX=1;exitY=0.5;exitDx=0;exitDy=0;exitPerimeter=0;entryX=0;entryY=0.5;entryDx=0;entryDy=0;entryPerimeter=0;strokeWidth=2;" parent="VGzt8ICLMrnI1Oa5_CKK-4" source="_WOvtQiHd2VFELGf8nYZ-4" target="qNmAvK00ZiZSQiN0OZeG-18" edge="1">
          <mxGeometry relative="1" as="geometry" />
        </mxCell>
        <mxCell id="m--Rm10WW4JqGCNbjd-S-1" value="dot text files" style="shape=mxgraph.bpmn.data;labelPosition=center;verticalLabelPosition=bottom;align=center;verticalAlign=top;size=15;html=1;bpmnTransferType=none;isCollection=0;strokeWidth=2;fontFamily=Open Sans;fontSize=18;" parent="VGzt8ICLMrnI1Oa5_CKK-4" vertex="1">
          <mxGeometry x="1056" y="61" width="40" height="60" as="geometry" />
        </mxCell>
        <mxCell id="eGiD7hgd_W3EBSDkwFvs-10" value="&lt;font face=&quot;Open Sans&quot; style=&quot;font-size: 18px;&quot;&gt;td.html&lt;br&gt;wotsec.html&lt;br&gt;jsonschema.html&lt;br&gt;tm.html, hctl.html&lt;br&gt;&lt;/font&gt;" style="shape=mxgraph.bpmn.data;labelPosition=center;verticalLabelPosition=bottom;align=center;verticalAlign=top;size=15;html=1;bpmnTransferType=output;isCollection=1;strokeWidth=2;" parent="VGzt8ICLMrnI1Oa5_CKK-4" vertex="1">
          <mxGeometry x="1526" y="16" width="40" height="60" as="geometry" />
        </mxCell>
        <mxCell id="eGiD7hgd_W3EBSDkwFvs-9" value="&lt;font face=&quot;Open Sans&quot; style=&quot;font-size: 18px;&quot;&gt;index.html&lt;/font&gt;" style="shape=mxgraph.bpmn.data;labelPosition=center;verticalLabelPosition=bottom;align=center;verticalAlign=top;size=15;html=1;bpmnTransferType=output;strokeWidth=2;" parent="VGzt8ICLMrnI1Oa5_CKK-4" vertex="1">
          <mxGeometry x="1204" y="61" width="40" height="60" as="geometry" />
        </mxCell>
        <mxCell id="eGiD7hgd_W3EBSDkwFvs-27" style="edgeStyle=orthogonalEdgeStyle;rounded=0;orthogonalLoop=1;jettySize=auto;html=1;exitX=1;exitY=0.5;exitDx=0;exitDy=0;exitPerimeter=0;entryX=0.009;entryY=0.68;entryDx=0;entryDy=0;entryPerimeter=0;strokeWidth=2;" parent="VGzt8ICLMrnI1Oa5_CKK-4" source="j38e2xBNTlvkhbtnWXw8-18" target="_WOvtQiHd2VFELGf8nYZ-4" edge="1">
          <mxGeometry relative="1" as="geometry" />
        </mxCell>
        <mxCell id="QsJUU_9gHce4eA45duxp-7" style="edgeStyle=orthogonalEdgeStyle;rounded=0;orthogonalLoop=1;jettySize=auto;html=1;exitX=0.5;exitY=0;exitDx=0;exitDy=0;exitPerimeter=0;entryX=0;entryY=0.5;entryDx=0;entryDy=0;entryPerimeter=0;strokeWidth=2;" parent="VGzt8ICLMrnI1Oa5_CKK-4" source="QsJUU_9gHce4eA45duxp-3" target="j38e2xBNTlvkhbtnWXw8-9" edge="1">
          <mxGeometry relative="1" as="geometry" />
        </mxCell>
        <mxCell id="QsJUU_9gHce4eA45duxp-10" value="&lt;font style=&quot;font-size: 14px;&quot;&gt;-i arguments&lt;/font&gt;" style="edgeLabel;html=1;align=center;verticalAlign=middle;resizable=0;points=[];" parent="QsJUU_9gHce4eA45duxp-7" vertex="1" connectable="0">
          <mxGeometry x="0.1024" relative="1" as="geometry">
            <mxPoint x="33" y="-11" as="offset" />
          </mxGeometry>
        </mxCell>
        <mxCell id="QsJUU_9gHce4eA45duxp-11" style="edgeStyle=orthogonalEdgeStyle;rounded=0;orthogonalLoop=1;jettySize=auto;html=1;exitX=1;exitY=0.5;exitDx=0;exitDy=0;exitPerimeter=0;strokeWidth=2;" parent="VGzt8ICLMrnI1Oa5_CKK-4" source="QsJUU_9gHce4eA45duxp-3" target="Ofl28no2zRaDtYhroZU3-2" edge="1">
          <mxGeometry relative="1" as="geometry" />
        </mxCell>
        <mxCell id="QsJUU_9gHce4eA45duxp-12" value="&lt;font style=&quot;font-size: 14px;&quot;&gt;-c arguments&lt;/font&gt;" style="edgeLabel;html=1;align=center;verticalAlign=middle;resizable=0;points=[];" parent="QsJUU_9gHce4eA45duxp-11" vertex="1" connectable="0">
          <mxGeometry x="-0.2347" relative="1" as="geometry">
            <mxPoint x="4" y="-19" as="offset" />
          </mxGeometry>
        </mxCell>
        <mxCell id="QsJUU_9gHce4eA45duxp-13" value="&lt;font style=&quot;font-size: 14px;&quot;&gt;-t arguments&lt;/font&gt;" style="edgeStyle=orthogonalEdgeStyle;rounded=0;orthogonalLoop=1;jettySize=auto;html=1;exitX=0.5;exitY=1;exitDx=0;exitDy=0;exitPerimeter=0;entryX=0;entryY=0.6;entryDx=0;entryDy=0;entryPerimeter=0;strokeWidth=2;" parent="VGzt8ICLMrnI1Oa5_CKK-4" source="QsJUU_9gHce4eA45duxp-3" target="j38e2xBNTlvkhbtnWXw8-18" edge="1">
          <mxGeometry x="0.4818" y="10" relative="1" as="geometry">
            <mxPoint as="offset" />
          </mxGeometry>
        </mxCell>
        <mxCell id="QsJUU_9gHce4eA45duxp-3" value="" style="points=[[0.25,0.25,0],[0.5,0,0],[0.75,0.25,0],[1,0.5,0],[0.75,0.75,0],[0.5,1,0],[0.25,0.75,0],[0,0.5,0]];shape=mxgraph.bpmn.gateway2;html=1;verticalLabelPosition=bottom;labelBackgroundColor=#ffffff;verticalAlign=top;align=center;perimeter=rhombusPerimeter;outlineConnect=0;outline=none;symbol=none;gwType=exclusive;fillColor=#ffcccc;strokeColor=#36393d;" parent="VGzt8ICLMrnI1Oa5_CKK-4" vertex="1">
          <mxGeometry x="306" y="158" width="50" height="50" as="geometry" />
        </mxCell>
        <mxCell id="QsJUU_9gHce4eA45duxp-6" style="edgeStyle=orthogonalEdgeStyle;rounded=0;orthogonalLoop=1;jettySize=auto;html=1;exitX=0.5;exitY=1;exitDx=0;exitDy=0;exitPerimeter=0;entryX=0;entryY=0.5;entryDx=0;entryDy=0;entryPerimeter=0;" parent="VGzt8ICLMrnI1Oa5_CKK-4" source="j38e2xBNTlvkhbtnWXw8-3" target="QsJUU_9gHce4eA45duxp-3" edge="1">
          <mxGeometry relative="1" as="geometry" />
        </mxCell>
        <mxCell id="QsJUU_9gHce4eA45duxp-24" value="" style="group" parent="VGzt8ICLMrnI1Oa5_CKK-4" vertex="1" connectable="0">
          <mxGeometry x="140" y="66" width="120.5" height="80" as="geometry" />
        </mxCell>
        <mxCell id="j38e2xBNTlvkhbtnWXw8-3" value="Process command-line arguments" style="points=[[0.25,0,0],[0.5,0,0],[0.75,0,0],[1,0.25,0],[1,0.5,0],[1,0.75,0],[0.75,1,0],[0.5,1,0],[0.25,1,0],[0,0.75,0],[0,0.5,0],[0,0.25,0]];shape=mxgraph.bpmn.task;whiteSpace=wrap;rectStyle=rounded;size=10;html=1;taskMarker=script;fontFamily=Open Sans;fontSize=18;strokeWidth=1;container=0;fillColor=#dae8fc;strokeColor=#6c8ebf;" parent="QsJUU_9gHce4eA45duxp-24" vertex="1">
          <mxGeometry width="120" height="80" as="geometry" />
        </mxCell>
        <mxCell id="eGiD7hgd_W3EBSDkwFvs-23" value="&lt;div style=&quot;font-size: 18px;&quot;&gt;7&lt;/div&gt;" style="ellipse;whiteSpace=wrap;html=1;aspect=fixed;fontFamily=Open Sans;fillColor=#D1D1D1;fontSize=18;spacing=2;spacingTop=1;verticalAlign=middle;align=center;horizontal=1;container=0;" parent="QsJUU_9gHce4eA45duxp-24" vertex="1">
          <mxGeometry x="99.5" width="21" height="21" as="geometry" />
        </mxCell>
        <mxCell id="eGiD7hgd_W3EBSDkwFvs-24" value="&lt;div style=&quot;font-size: 18px;&quot;&gt;8&lt;/div&gt;" style="ellipse;whiteSpace=wrap;html=1;aspect=fixed;fontFamily=Open Sans;fillColor=#D1D1D1;fontSize=18;spacing=2;spacingTop=1;verticalAlign=middle;align=center;horizontal=1;container=0;" parent="VGzt8ICLMrnI1Oa5_CKK-4" vertex="1">
          <mxGeometry x="536" y="32" width="21" height="21" as="geometry" />
        </mxCell>
        <mxCell id="QsJUU_9gHce4eA45duxp-25" value="" style="group" parent="VGzt8ICLMrnI1Oa5_CKK-4" vertex="1" connectable="0">
          <mxGeometry x="436" y="143" width="120" height="80" as="geometry" />
        </mxCell>
        <mxCell id="Ofl28no2zRaDtYhroZU3-2" value="Identify &lt;br&gt;Start Node" style="points=[[0.25,0,0],[0.5,0,0],[0.75,0,0],[1,0.25,0],[1,0.5,0],[1,0.75,0],[0.75,1,0],[0.5,1,0],[0.25,1,0],[0,0.75,0],[0,0.5,0],[0,0.25,0]];shape=mxgraph.bpmn.task;whiteSpace=wrap;rectStyle=rounded;size=10;html=1;taskMarker=script;fontFamily=Open Sans;fontSize=18;strokeWidth=1;container=0;fillColor=#dae8fc;strokeColor=#6c8ebf;" parent="QsJUU_9gHce4eA45duxp-25" vertex="1">
          <mxGeometry width="120" height="80" as="geometry" />
        </mxCell>
        <mxCell id="eGiD7hgd_W3EBSDkwFvs-25" value="&lt;div style=&quot;font-size: 18px;&quot;&gt;9&lt;/div&gt;" style="ellipse;whiteSpace=wrap;html=1;aspect=fixed;fontFamily=Open Sans;fillColor=#D1D1D1;fontSize=18;spacing=2;spacingTop=1;verticalAlign=middle;align=center;horizontal=1;container=0;" parent="QsJUU_9gHce4eA45duxp-25" vertex="1">
          <mxGeometry x="99" width="21" height="21" as="geometry" />
        </mxCell>
        <mxCell id="QsJUU_9gHce4eA45duxp-26" value="" style="group" parent="VGzt8ICLMrnI1Oa5_CKK-4" vertex="1" connectable="0">
          <mxGeometry x="436" y="248" width="120" height="80" as="geometry" />
        </mxCell>
        <mxCell id="j38e2xBNTlvkhbtnWXw8-18" value="&amp;nbsp;Parse Template" style="points=[[0.25,0,0],[0.5,0,0],[0.75,0,0],[1,0.25,0],[1,0.5,0],[1,0.75,0],[0.75,1,0],[0.5,1,0],[0.25,1,0],[0,0.75,0],[0,0.5,0],[0,0.25,0]];shape=mxgraph.bpmn.task;whiteSpace=wrap;rectStyle=rounded;size=10;html=1;taskMarker=script;fontFamily=Open Sans;fontSize=18;strokeWidth=1;container=0;fillColor=#dae8fc;strokeColor=#6c8ebf;" parent="QsJUU_9gHce4eA45duxp-26" vertex="1">
          <mxGeometry width="120" height="80" as="geometry" />
        </mxCell>
        <mxCell id="eGiD7hgd_W3EBSDkwFvs-26" value="&lt;div style=&quot;font-size: 18px;&quot;&gt;10&lt;/div&gt;" style="ellipse;whiteSpace=wrap;html=1;aspect=fixed;fontFamily=Open Sans;fillColor=#D1D1D1;fontSize=18;spacing=2;spacingTop=1;verticalAlign=middle;align=center;horizontal=1;container=0;" parent="QsJUU_9gHce4eA45duxp-26" vertex="1">
          <mxGeometry x="99" width="21" height="21" as="geometry" />
        </mxCell>
        <mxCell id="QsJUU_9gHce4eA45duxp-27" value="" style="group" parent="VGzt8ICLMrnI1Oa5_CKK-4" vertex="1" connectable="0">
          <mxGeometry x="683" y="233" width="121.5" height="80" as="geometry" />
        </mxCell>
        <mxCell id="_WOvtQiHd2VFELGf8nYZ-4" value="Match URI with Template" style="points=[[0.25,0,0],[0.5,0,0],[0.75,0,0],[1,0.25,0],[1,0.5,0],[1,0.75,0],[0.75,1,0],[0.5,1,0],[0.25,1,0],[0,0.75,0],[0,0.5,0],[0,0.25,0]];shape=mxgraph.bpmn.task;whiteSpace=wrap;rectStyle=rounded;size=10;html=1;taskMarker=script;fontFamily=Open Sans;fontSize=18;strokeWidth=1;container=0;fillColor=#dae8fc;strokeColor=#6c8ebf;" parent="QsJUU_9gHce4eA45duxp-27" vertex="1">
          <mxGeometry width="120" height="80" as="geometry" />
        </mxCell>
        <mxCell id="eGiD7hgd_W3EBSDkwFvs-31" value="&lt;div style=&quot;font-size: 18px;&quot;&gt;11&lt;/div&gt;" style="ellipse;whiteSpace=wrap;html=1;aspect=fixed;fontFamily=Open Sans;fillColor=#D1D1D1;fontSize=18;spacing=2;spacingTop=1;verticalAlign=middle;align=center;horizontal=1;container=0;" parent="QsJUU_9gHce4eA45duxp-27" vertex="1">
          <mxGeometry x="100.5" width="21" height="21" as="geometry" />
        </mxCell>
        <mxCell id="eGiD7hgd_W3EBSDkwFvs-15" style="edgeStyle=orthogonalEdgeStyle;rounded=0;orthogonalLoop=1;jettySize=auto;html=1;exitX=0.25;exitY=1;exitDx=0;exitDy=0;exitPerimeter=0;entryX=0.709;entryY=0.021;entryDx=0;entryDy=0;entryPerimeter=0;strokeWidth=2;" parent="VGzt8ICLMrnI1Oa5_CKK-1" source="GyIcix-912z4nd1oCBAl-36" target="ePJhNjqC5I8l9NKkh14M-2" edge="1">
          <mxGeometry relative="1" as="geometry">
            <Array as="points">
              <mxPoint x="1256" y="386" />
              <mxPoint x="240" y="386" />
            </Array>
          </mxGeometry>
        </mxCell>
        <mxCell id="eGiD7hgd_W3EBSDkwFvs-33" style="edgeStyle=orthogonalEdgeStyle;rounded=0;orthogonalLoop=1;jettySize=auto;html=1;exitX=0.996;exitY=0.526;exitDx=0;exitDy=0;exitPerimeter=0;entryX=0.5;entryY=1;entryDx=0;entryDy=0;entryPerimeter=0;dashed=1;" parent="VGzt8ICLMrnI1Oa5_CKK-1" source="XGOKVKMuQb5bFnaV05zs-5" target="GyIcix-912z4nd1oCBAl-48" edge="1">
          <mxGeometry relative="1" as="geometry" />
        </mxCell>
        <mxCell id="ZgOHyOl-9yGUdzWE5SVL-1" style="edgeStyle=orthogonalEdgeStyle;rounded=0;orthogonalLoop=1;jettySize=auto;html=1;exitX=-0.041;exitY=0.485;exitDx=0;exitDy=0;exitPerimeter=0;entryX=0.5;entryY=0;entryDx=0;entryDy=0;entryPerimeter=0;dashed=1;" parent="1" source="wIb-IDq65dvI-1YJ-4g0-39" target="ePJhNjqC5I8l9NKkh14M-2" edge="1">
          <mxGeometry relative="1" as="geometry">
            <mxPoint x="399.9999999999998" y="274" as="sourcePoint" />
          </mxGeometry>
        </mxCell>
        <mxCell id="GyIcix-912z4nd1oCBAl-57" value="&lt;font face=&quot;Open Sans&quot; style=&quot;font-size: 16px; font-weight: normal;&quot;&gt;Parser Creation&lt;/font&gt;" style="swimlane;html=1;childLayout=stackLayout;resizeParent=1;resizeParentMax=0;horizontal=0;startSize=20;horizontalStack=0;whiteSpace=wrap;fillColor=#eeeeee;strokeColor=#36393d;rounded=1;" parent="1" vertex="1">
          <mxGeometry x="4" y="1017" width="540" height="200" as="geometry" />
        </mxCell>
        <mxCell id="GyIcix-912z4nd1oCBAl-58" value="&lt;font face=&quot;Open Sans&quot; style=&quot;font-size: 16px; font-weight: normal;&quot;&gt;Developer&lt;/font&gt;" style="swimlane;html=1;startSize=20;horizontal=0;fillColor=#eeeeee;strokeColor=#36393d;rounded=1;" parent="GyIcix-912z4nd1oCBAl-57" vertex="1">
          <mxGeometry x="20" width="520" height="200" as="geometry" />
        </mxCell>
        <mxCell id="OzjYLKKb6khlbzyJRCWS-3" value="&lt;font face=&quot;Open Sans&quot; style=&quot;font-size: 18px;&quot;&gt;Develop Grammar for STTL&lt;/font&gt;" style="points=[[0.25,0,0],[0.5,0,0],[0.75,0,0],[1,0.25,0],[1,0.5,0],[1,0.75,0],[0.75,1,0],[0.5,1,0],[0.25,1,0],[0,0.75,0],[0,0.5,0],[0,0.25,0]];shape=mxgraph.bpmn.task;whiteSpace=wrap;rectStyle=rounded;size=10;html=1;container=1;expand=0;collapsible=0;taskMarker=manual;fillColor=#dae8fc;strokeColor=#6c8ebf;" parent="GyIcix-912z4nd1oCBAl-58" vertex="1">
          <mxGeometry x="115" y="115" width="120" height="80" as="geometry" />
        </mxCell>
        <mxCell id="eGiD7hgd_W3EBSDkwFvs-18" value="&lt;div style=&quot;font-size: 18px;&quot;&gt;&lt;span style=&quot;background-color: initial; font-size: 18px;&quot;&gt;1&lt;/span&gt;&lt;/div&gt;" style="ellipse;whiteSpace=wrap;html=1;aspect=fixed;fontFamily=Open Sans;fillColor=#D1D1D1;fontSize=18;spacing=2;spacingTop=1;verticalAlign=middle;align=center;horizontal=1;" parent="OzjYLKKb6khlbzyJRCWS-3" vertex="1">
          <mxGeometry x="99" width="21" height="21" as="geometry" />
        </mxCell>
        <mxCell id="OzjYLKKb6khlbzyJRCWS-16" style="edgeStyle=orthogonalEdgeStyle;rounded=0;orthogonalLoop=1;jettySize=auto;html=1;exitX=1;exitY=0.5;exitDx=0;exitDy=0;exitPerimeter=0;entryX=0;entryY=0.5;entryDx=0;entryDy=0;entryPerimeter=0;strokeWidth=2;" parent="GyIcix-912z4nd1oCBAl-58" source="OzjYLKKb6khlbzyJRCWS-7" target="OzjYLKKb6khlbzyJRCWS-15" edge="1">
          <mxGeometry relative="1" as="geometry" />
        </mxCell>
        <mxCell id="OzjYLKKb6khlbzyJRCWS-7" value="&lt;font face=&quot;Open Sans&quot; style=&quot;font-size: 18px;&quot;&gt;Jison Parser&lt;/font&gt;" style="points=[[0.25,0,0],[0.5,0,0],[0.75,0,0],[1,0.25,0],[1,0.5,0],[1,0.75,0],[0.75,1,0],[0.5,1,0],[0.25,1,0],[0,0.75,0],[0,0.5,0],[0,0.25,0]];shape=mxgraph.bpmn.task;whiteSpace=wrap;rectStyle=rounded;size=10;html=1;container=1;expand=0;collapsible=0;taskMarker=service;fillColor=#dae8fc;strokeColor=#6c8ebf;" parent="GyIcix-912z4nd1oCBAl-58" vertex="1">
          <mxGeometry x="285" y="115" width="120" height="80" as="geometry" />
        </mxCell>
        <mxCell id="eGiD7hgd_W3EBSDkwFvs-19" value="&lt;div style=&quot;font-size: 18px;&quot;&gt;&lt;span style=&quot;background-color: initial; font-size: 18px;&quot;&gt;2&lt;/span&gt;&lt;/div&gt;" style="ellipse;whiteSpace=wrap;html=1;aspect=fixed;fontFamily=Open Sans;fillColor=#D1D1D1;fontSize=18;spacing=2;spacingTop=1;verticalAlign=middle;align=center;horizontal=1;" parent="OzjYLKKb6khlbzyJRCWS-7" vertex="1">
          <mxGeometry x="99" width="21" height="21" as="geometry" />
        </mxCell>
        <mxCell id="OzjYLKKb6khlbzyJRCWS-2" style="edgeStyle=orthogonalEdgeStyle;rounded=0;orthogonalLoop=1;jettySize=auto;html=1;exitX=1;exitY=0.5;exitDx=0;exitDy=0;exitPerimeter=0;entryX=0;entryY=0.5;entryDx=0;entryDy=0;entryPerimeter=0;strokeWidth=2;" parent="GyIcix-912z4nd1oCBAl-58" source="OzjYLKKb6khlbzyJRCWS-3" target="OzjYLKKb6khlbzyJRCWS-7" edge="1">
          <mxGeometry relative="1" as="geometry" />
        </mxCell>
        <mxCell id="OzjYLKKb6khlbzyJRCWS-14" style="edgeStyle=orthogonalEdgeStyle;rounded=0;orthogonalLoop=1;jettySize=auto;html=1;exitX=1;exitY=0.5;exitDx=0;exitDy=0;exitPerimeter=0;entryX=0;entryY=0.5;entryDx=0;entryDy=0;entryPerimeter=0;strokeWidth=2;" parent="GyIcix-912z4nd1oCBAl-58" source="OzjYLKKb6khlbzyJRCWS-13" target="OzjYLKKb6khlbzyJRCWS-3" edge="1">
          <mxGeometry relative="1" as="geometry" />
        </mxCell>
        <mxCell id="OzjYLKKb6khlbzyJRCWS-13" value="" style="points=[[0.145,0.145,0],[0.5,0,0],[0.855,0.145,0],[1,0.5,0],[0.855,0.855,0],[0.5,1,0],[0.145,0.855,0],[0,0.5,0]];shape=mxgraph.bpmn.event;html=1;verticalLabelPosition=bottom;labelBackgroundColor=#ffffff;verticalAlign=top;align=center;perimeter=ellipsePerimeter;outlineConnect=0;aspect=fixed;outline=standard;symbol=general;fontFamily=Open Sans;fontSize=18;strokeWidth=2;fillColor=#d5e8d4;strokeColor=#000000;" parent="GyIcix-912z4nd1oCBAl-58" vertex="1">
          <mxGeometry x="27" y="132.5" width="45" height="45" as="geometry" />
        </mxCell>
        <mxCell id="OzjYLKKb6khlbzyJRCWS-15" value="" style="points=[[0.145,0.145,0],[0.5,0,0],[0.855,0.145,0],[1,0.5,0],[0.855,0.855,0],[0.5,1,0],[0.145,0.855,0],[0,0.5,0]];shape=mxgraph.bpmn.event;html=1;verticalLabelPosition=bottom;labelBackgroundColor=#ffffff;verticalAlign=top;align=center;perimeter=ellipsePerimeter;outlineConnect=0;aspect=fixed;outline=end;symbol=terminate2;fontFamily=Open Sans;fontSize=18;strokeWidth=2;fillColor=#d5e8d4;strokeColor=#000000;" parent="GyIcix-912z4nd1oCBAl-58" vertex="1">
          <mxGeometry x="460" y="130" width="50" height="50" as="geometry" />
        </mxCell>
        <mxCell id="OzjYLKKb6khlbzyJRCWS-5" value="Grammar" style="shape=mxgraph.bpmn.data;labelPosition=center;verticalLabelPosition=bottom;align=center;verticalAlign=top;size=15;html=1;bpmnTransferType=none;isCollection=0;strokeWidth=2;fontFamily=Open Sans;fontSize=18;" parent="GyIcix-912z4nd1oCBAl-58" vertex="1">
          <mxGeometry x="230" y="10" width="40" height="60" as="geometry" />
        </mxCell>
        <mxCell id="OzjYLKKb6khlbzyJRCWS-1" style="edgeStyle=orthogonalEdgeStyle;rounded=0;orthogonalLoop=1;jettySize=auto;html=1;exitX=0.5;exitY=0;exitDx=0;exitDy=0;exitPerimeter=0;entryX=0;entryY=0.5;entryDx=0;entryDy=0;entryPerimeter=0;dashed=1;" parent="GyIcix-912z4nd1oCBAl-58" source="OzjYLKKb6khlbzyJRCWS-3" target="OzjYLKKb6khlbzyJRCWS-5" edge="1">
          <mxGeometry relative="1" as="geometry">
            <Array as="points">
              <mxPoint x="175" y="40" />
            </Array>
          </mxGeometry>
        </mxCell>
        <mxCell id="OzjYLKKb6khlbzyJRCWS-4" style="edgeStyle=orthogonalEdgeStyle;rounded=0;orthogonalLoop=1;jettySize=auto;html=1;exitX=0.974;exitY=0.482;exitDx=0;exitDy=0;exitPerimeter=0;entryX=0.25;entryY=0;entryDx=0;entryDy=0;entryPerimeter=0;dashed=1;" parent="GyIcix-912z4nd1oCBAl-58" source="OzjYLKKb6khlbzyJRCWS-5" target="OzjYLKKb6khlbzyJRCWS-7" edge="1">
          <mxGeometry relative="1" as="geometry" />
        </mxCell>
        <mxCell id="OzjYLKKb6khlbzyJRCWS-12" value="&lt;font face=&quot;Open Sans&quot; style=&quot;font-size: 16px;&quot;&gt;Javascript Code&lt;/font&gt;" style="shape=mxgraph.bpmn.data;labelPosition=center;verticalLabelPosition=bottom;align=center;verticalAlign=top;size=15;html=1;bpmnTransferType=output;" parent="GyIcix-912z4nd1oCBAl-58" vertex="1">
          <mxGeometry x="407" y="10" width="40" height="60" as="geometry" />
        </mxCell>
        <mxCell id="OzjYLKKb6khlbzyJRCWS-6" style="edgeStyle=orthogonalEdgeStyle;rounded=0;orthogonalLoop=1;jettySize=auto;html=1;exitX=0.5;exitY=0;exitDx=0;exitDy=0;exitPerimeter=0;entryX=0;entryY=0.5;entryDx=0;entryDy=0;entryPerimeter=0;strokeWidth=1;dashed=1;" parent="GyIcix-912z4nd1oCBAl-58" source="OzjYLKKb6khlbzyJRCWS-7" target="OzjYLKKb6khlbzyJRCWS-12" edge="1">
          <mxGeometry relative="1" as="geometry">
            <mxPoint x="405" y="149" as="targetPoint" />
          </mxGeometry>
        </mxCell>
        <mxCell id="Fm6DQhmWVcWw036a1YwF-9" style="edgeStyle=orthogonalEdgeStyle;rounded=0;orthogonalLoop=1;jettySize=auto;html=1;exitX=0.994;exitY=0.572;exitDx=0;exitDy=0;exitPerimeter=0;entryX=0.5;entryY=1;entryDx=0;entryDy=0;entryPerimeter=0;dashed=1;" parent="1" source="OzjYLKKb6khlbzyJRCWS-12" target="j38e2xBNTlvkhbtnWXw8-18" edge="1">
          <mxGeometry relative="1" as="geometry" />
        </mxCell>
        <mxCell id="qNmAvK00ZiZSQiN0OZeG-102" style="edgeStyle=orthogonalEdgeStyle;rounded=0;orthogonalLoop=1;jettySize=auto;html=1;exitX=1;exitY=0.5;exitDx=0;exitDy=0;exitPerimeter=0;entryX=0;entryY=0.5;entryDx=0;entryDy=0;entryPerimeter=0;" parent="1" source="qNmAvK00ZiZSQiN0OZeG-103" target="qNmAvK00ZiZSQiN0OZeG-105" edge="1">
          <mxGeometry relative="1" as="geometry" />
        </mxCell>
        <mxCell id="qNmAvK00ZiZSQiN0OZeG-103" value="" style="points=[[0.145,0.145,0],[0.5,0,0],[0.855,0.145,0],[1,0.5,0],[0.855,0.855,0],[0.5,1,0],[0.145,0.855,0],[0,0.5,0]];shape=mxgraph.bpmn.event;html=1;verticalLabelPosition=bottom;labelBackgroundColor=#ffffff;verticalAlign=top;align=center;perimeter=ellipsePerimeter;outlineConnect=0;aspect=fixed;outline=standard;symbol=general;fontFamily=Open Sans;fontSize=18;strokeWidth=2;fillColor=#d5e8d4;strokeColor=#000000;" parent="1" vertex="1">
          <mxGeometry x="870" y="847.5" width="45" height="45" as="geometry" />
        </mxCell>
        <mxCell id="XGOKVKMuQb5bFnaV05zs-8" style="edgeStyle=orthogonalEdgeStyle;rounded=0;orthogonalLoop=1;jettySize=auto;html=1;exitX=1;exitY=0.5;exitDx=0;exitDy=0;exitPerimeter=0;entryX=0;entryY=0.5;entryDx=0;entryDy=0;entryPerimeter=0;" parent="1" source="qNmAvK00ZiZSQiN0OZeG-116" target="qNmAvK00ZiZSQiN0OZeG-121" edge="1">
          <mxGeometry relative="1" as="geometry" />
        </mxCell>
        <mxCell id="qNmAvK00ZiZSQiN0OZeG-116" value="&lt;font face=&quot;Open Sans&quot; style=&quot;font-size: 18px;&quot;&gt;Execute Query&lt;/font&gt;" style="points=[[0.25,0,0],[0.5,0,0],[0.75,0,0],[1,0.25,0],[1,0.5,0],[1,0.75,0],[0.75,1,0],[0.5,1,0],[0.25,1,0],[0,0.75,0],[0,0.5,0],[0,0.25,0]];shape=mxgraph.bpmn.task;whiteSpace=wrap;rectStyle=rounded;size=10;html=1;container=0;expand=0;collapsible=0;taskMarker=service;fillColor=#dae8fc;strokeColor=#6c8ebf;" parent="1" vertex="1">
          <mxGeometry x="1471" y="830" width="120" height="80" as="geometry" />
        </mxCell>
        <mxCell id="qNmAvK00ZiZSQiN0OZeG-117" style="edgeStyle=orthogonalEdgeStyle;rounded=0;orthogonalLoop=1;jettySize=auto;html=1;exitX=1;exitY=0.5;exitDx=0;exitDy=0;exitPerimeter=0;entryX=0;entryY=0.5;entryDx=0;entryDy=0;entryPerimeter=0;" parent="1" source="qNmAvK00ZiZSQiN0OZeG-105" target="qNmAvK00ZiZSQiN0OZeG-108" edge="1">
          <mxGeometry relative="1" as="geometry" />
        </mxCell>
        <mxCell id="qNmAvK00ZiZSQiN0OZeG-118" style="edgeStyle=orthogonalEdgeStyle;rounded=0;orthogonalLoop=1;jettySize=auto;html=1;exitX=1;exitY=0.5;exitDx=0;exitDy=0;exitPerimeter=0;entryX=0;entryY=0.5;entryDx=0;entryDy=0;entryPerimeter=0;" parent="1" source="qNmAvK00ZiZSQiN0OZeG-108" target="qNmAvK00ZiZSQiN0OZeG-111" edge="1">
          <mxGeometry relative="1" as="geometry" />
        </mxCell>
        <mxCell id="qNmAvK00ZiZSQiN0OZeG-119" style="edgeStyle=orthogonalEdgeStyle;rounded=0;orthogonalLoop=1;jettySize=auto;html=1;exitX=1;exitY=0.5;exitDx=0;exitDy=0;exitPerimeter=0;entryX=0;entryY=0.5;entryDx=0;entryDy=0;entryPerimeter=0;" parent="1" source="qNmAvK00ZiZSQiN0OZeG-111" target="qNmAvK00ZiZSQiN0OZeG-114" edge="1">
          <mxGeometry relative="1" as="geometry" />
        </mxCell>
        <mxCell id="qNmAvK00ZiZSQiN0OZeG-120" style="edgeStyle=orthogonalEdgeStyle;rounded=0;orthogonalLoop=1;jettySize=auto;html=1;exitX=1;exitY=0.5;exitDx=0;exitDy=0;exitPerimeter=0;entryX=-0.015;entryY=0.502;entryDx=0;entryDy=0;entryPerimeter=0;" parent="1" source="qNmAvK00ZiZSQiN0OZeG-114" target="qNmAvK00ZiZSQiN0OZeG-116" edge="1">
          <mxGeometry relative="1" as="geometry" />
        </mxCell>
        <mxCell id="l2gTaRMScHJvprtYG_QC-1" style="edgeStyle=orthogonalEdgeStyle;rounded=0;orthogonalLoop=1;jettySize=auto;html=1;entryX=0.25;entryY=1;entryDx=0;entryDy=0;entryPerimeter=0;strokeWidth=2;" parent="1" target="GyIcix-912z4nd1oCBAl-48" edge="1">
          <mxGeometry relative="1" as="geometry">
            <mxPoint x="1040" y="448" as="sourcePoint" />
            <Array as="points">
              <mxPoint x="1438" y="448" />
            </Array>
          </mxGeometry>
        </mxCell>
        <mxCell id="qNmAvK00ZiZSQiN0OZeG-105" value="Evaluate Patterns" style="points=[[0.25,0,0],[0.5,0,0],[0.75,0,0],[1,0.25,0],[1,0.5,0],[1,0.75,0],[0.75,1,0],[0.5,1,0],[0.25,1,0],[0,0.75,0],[0,0.5,0],[0,0.25,0]];shape=mxgraph.bpmn.task;whiteSpace=wrap;rectStyle=rounded;size=10;html=1;taskMarker=script;fontFamily=Open Sans;fontSize=18;strokeWidth=1;container=0;fillColor=#dae8fc;strokeColor=#6c8ebf;" parent="1" vertex="1">
          <mxGeometry x="928" y="830" width="120" height="80" as="geometry" />
        </mxCell>
        <mxCell id="qNmAvK00ZiZSQiN0OZeG-108" value="Evaluate Variables" style="points=[[0.25,0,0],[0.5,0,0],[0.75,0,0],[1,0.25,0],[1,0.5,0],[1,0.75,0],[0.75,1,0],[0.5,1,0],[0.25,1,0],[0,0.75,0],[0,0.5,0],[0,0.25,0]];shape=mxgraph.bpmn.task;whiteSpace=wrap;rectStyle=rounded;size=10;html=1;taskMarker=script;fontFamily=Open Sans;fontSize=18;strokeWidth=1;container=0;fillColor=#dae8fc;strokeColor=#6c8ebf;" parent="1" vertex="1">
          <mxGeometry x="1064" y="830" width="120" height="80" as="geometry" />
        </mxCell>
        <mxCell id="qNmAvK00ZiZSQiN0OZeG-111" value="Evaluate Expressions" style="points=[[0.25,0,0],[0.5,0,0],[0.75,0,0],[1,0.25,0],[1,0.5,0],[1,0.75,0],[0.75,1,0],[0.5,1,0],[0.25,1,0],[0,0.75,0],[0,0.5,0],[0,0.25,0]];shape=mxgraph.bpmn.task;whiteSpace=wrap;rectStyle=rounded;size=10;html=1;taskMarker=script;fontFamily=Open Sans;fontSize=18;strokeWidth=1;container=0;fillColor=#dae8fc;strokeColor=#6c8ebf;" parent="1" vertex="1">
          <mxGeometry x="1200" y="830" width="120" height="80" as="geometry" />
        </mxCell>
        <mxCell id="qNmAvK00ZiZSQiN0OZeG-114" value="Construct JSON Query" style="points=[[0.25,0,0],[0.5,0,0],[0.75,0,0],[1,0.25,0],[1,0.5,0],[1,0.75,0],[0.75,1,0],[0.5,1,0],[0.25,1,0],[0,0.75,0],[0,0.5,0],[0,0.25,0]];shape=mxgraph.bpmn.task;whiteSpace=wrap;rectStyle=rounded;size=10;html=1;taskMarker=script;fontFamily=Open Sans;fontSize=18;strokeWidth=1;container=0;fillColor=#dae8fc;strokeColor=#6c8ebf;" parent="1" vertex="1">
          <mxGeometry x="1335" y="830" width="120" height="80" as="geometry" />
        </mxCell>
        <mxCell id="pAAA9KgtSf3Se2AW9XY_-41" value="&lt;font style=&quot;font-size: 18px;&quot; face=&quot;Open Sans&quot;&gt;Until agreement&lt;/font&gt;" style="text;html=1;strokeColor=none;fillColor=none;align=center;verticalAlign=middle;whiteSpace=wrap;rounded=0;fontSize=12;fontFamily=Helvetica;fontColor=default;" parent="1" vertex="1">
          <mxGeometry x="430.5" y="-48" width="129.5" height="30" as="geometry" />
        </mxCell>
        <mxCell id="dqQZkA_G8O030KViG1e_-2" style="rounded=0;orthogonalLoop=1;jettySize=auto;html=1;exitX=0;exitY=0.5;exitDx=0;exitDy=0;exitPerimeter=0;fontFamily=Helvetica;fontSize=12;fontColor=default;startArrow=none;startFill=0;endArrow=none;endFill=0;dashed=1;" parent="1" source="pAAA9KgtSf3Se2AW9XY_-42" edge="1">
          <mxGeometry relative="1" as="geometry">
            <mxPoint x="310" y="10" as="targetPoint" />
          </mxGeometry>
        </mxCell>
        <mxCell id="pAAA9KgtSf3Se2AW9XY_-42" value="" style="html=1;shape=mxgraph.flowchart.annotation_2;align=left;labelPosition=right;pointerEvents=0;fontFamily=Helvetica;fontSize=12;fontColor=default;fillColor=none;gradientColor=none;" parent="1" vertex="1">
          <mxGeometry x="405.5" y="-50" width="36" height="34" as="geometry" />
        </mxCell>
        <mxCell id="wIb-IDq65dvI-1YJ-4g0-22" style="edgeStyle=orthogonalEdgeStyle;rounded=0;orthogonalLoop=1;jettySize=auto;html=1;entryX=0.6;entryY=-0.03;entryDx=0;entryDy=0;entryPerimeter=0;dashed=1;" parent="1" target="wIb-IDq65dvI-1YJ-4g0-30" edge="1">
          <mxGeometry relative="1" as="geometry">
            <mxPoint x="273.25" y="61.5" as="sourcePoint" />
            <Array as="points">
              <mxPoint x="300.25" y="61.5" />
              <mxPoint x="845.25" y="61.5" />
            </Array>
          </mxGeometry>
        </mxCell>
        <mxCell id="wIb-IDq65dvI-1YJ-4g0-23" value="" style="edgeStyle=orthogonalEdgeStyle;fontSize=18;html=1;endFill=0;startFill=0;endSize=6;startSize=6;dashed=1;endArrow=openThin;startArrow=none;rounded=0;strokeWidth=1;fontFamily=Open Sans;exitX=1.042;exitY=0.587;exitDx=0;exitDy=0;exitPerimeter=0;entryX=0.5;entryY=0;entryDx=0;entryDy=0;entryPerimeter=0;" parent="1" target="wIb-IDq65dvI-1YJ-4g0-32" edge="1">
          <mxGeometry width="160" relative="1" as="geometry">
            <mxPoint x="282.93000000000006" y="61.7199999999998" as="sourcePoint" />
            <mxPoint x="423.25" y="212.5" as="targetPoint" />
            <Array as="points">
              <mxPoint x="400" y="62" />
              <mxPoint x="400" y="123" />
            </Array>
          </mxGeometry>
        </mxCell>
        <mxCell id="wIb-IDq65dvI-1YJ-4g0-24" style="edgeStyle=orthogonalEdgeStyle;rounded=0;orthogonalLoop=1;jettySize=auto;html=1;exitX=0.5;exitY=0;exitDx=0;exitDy=0;exitPerimeter=0;entryX=0.5;entryY=1;entryDx=0;entryDy=0;entryPerimeter=0;dashed=1;" parent="1" source="wIb-IDq65dvI-1YJ-4g0-28" edge="1" target="wIb-IDq65dvI-1YJ-4g0-25">
          <mxGeometry relative="1" as="geometry">
            <mxPoint x="258.25" y="86.5" as="targetPoint" />
          </mxGeometry>
        </mxCell>
        <mxCell id="wIb-IDq65dvI-1YJ-4g0-25" value="" style="shape=mxgraph.bpmn.data;labelPosition=center;verticalLabelPosition=bottom;align=center;verticalAlign=top;size=15;html=1;bpmnTransferType=none;isCollection=1;strokeWidth=2;fontFamily=Open Sans;fontSize=18;" parent="1" vertex="1">
          <mxGeometry x="240.25" y="20.5" width="40" height="60" as="geometry" />
        </mxCell>
        <mxCell id="wIb-IDq65dvI-1YJ-4g0-26" value="&lt;font face=&quot;Open Sans&quot;&gt;&lt;span style=&quot;font-size: 18px;&quot;&gt;Ontologies: &lt;br&gt;td, wotsec, hctl, ...&lt;/span&gt;&lt;/font&gt;" style="text;html=1;strokeColor=none;fillColor=none;align=center;verticalAlign=middle;whiteSpace=wrap;rounded=0;" parent="1" vertex="1">
          <mxGeometry x="130.25" y="47.5" width="110" height="30" as="geometry" />
        </mxCell>
        <mxCell id="wIb-IDq65dvI-1YJ-4g0-29" value="" style="group" parent="1" vertex="1" connectable="0">
          <mxGeometry x="693.75" y="122.5" width="120" height="80" as="geometry" />
        </mxCell>
        <mxCell id="wIb-IDq65dvI-1YJ-4g0-30" value="SHACL Shapes Creation" style="points=[[0.25,0,0],[0.5,0,0],[0.75,0,0],[1,0.25,0],[1,0.5,0],[1,0.75,0],[0.75,1,0],[0.5,1,0],[0.25,1,0],[0,0.75,0],[0,0.5,0],[0,0.25,0]];shape=mxgraph.bpmn.task;whiteSpace=wrap;rectStyle=rounded;size=10;html=1;taskMarker=user;fontFamily=Open Sans;fontSize=18;strokeWidth=1;container=0;fillColor=#dae8fc;strokeColor=#6c8ebf;isLoopStandard=1;" parent="wIb-IDq65dvI-1YJ-4g0-29" vertex="1">
          <mxGeometry width="120" height="80" as="geometry" />
        </mxCell>
        <mxCell id="wIb-IDq65dvI-1YJ-4g0-35" value="SHACL shapes" style="shape=mxgraph.bpmn.data;labelPosition=center;verticalLabelPosition=bottom;align=center;verticalAlign=top;size=15;html=1;bpmnTransferType=none;isCollection=1;strokeWidth=2;fontFamily=Open Sans;fontSize=18;" parent="1" vertex="1">
          <mxGeometry x="732" y="249" width="40" height="60" as="geometry" />
        </mxCell>
        <mxCell id="wIb-IDq65dvI-1YJ-4g0-36" style="edgeStyle=orthogonalEdgeStyle;rounded=0;orthogonalLoop=1;jettySize=auto;html=1;entryX=0.5;entryY=0;entryDx=0;entryDy=0;entryPerimeter=0;strokeWidth=1;dashed=1;exitX=0.479;exitY=0.998;exitDx=0;exitDy=0;exitPerimeter=0;" parent="1" source="wIb-IDq65dvI-1YJ-4g0-30" target="wIb-IDq65dvI-1YJ-4g0-35" edge="1">
          <mxGeometry relative="1" as="geometry">
            <mxPoint x="780" y="219" as="sourcePoint" />
          </mxGeometry>
        </mxCell>
        <mxCell id="wIb-IDq65dvI-1YJ-4g0-38" style="edgeStyle=orthogonalEdgeStyle;rounded=0;orthogonalLoop=1;jettySize=auto;html=1;dashed=1;exitX=0.992;exitY=0.493;exitDx=0;exitDy=0;exitPerimeter=0;" parent="1" source="wIb-IDq65dvI-1YJ-4g0-39" target="wIb-IDq65dvI-1YJ-4g0-34" edge="1">
          <mxGeometry relative="1" as="geometry">
            <Array as="points">
              <mxPoint x="465" y="275" />
            </Array>
            <mxPoint x="590" y="200" as="targetPoint" />
          </mxGeometry>
        </mxCell>
        <mxCell id="wIb-IDq65dvI-1YJ-4g0-39" value="JSON-LD &lt;br&gt;Context" style="shape=mxgraph.bpmn.data;labelPosition=center;verticalLabelPosition=bottom;align=center;verticalAlign=top;size=15;html=1;bpmnTransferType=none;isCollection=1;strokeWidth=2;fontFamily=Open Sans;fontSize=18;" parent="1" vertex="1">
          <mxGeometry x="327" y="245" width="40" height="60" as="geometry" />
        </mxCell>
        <mxCell id="wIb-IDq65dvI-1YJ-4g0-28" value="Ontology Specification" style="points=[[0.25,0,0],[0.5,0,0],[0.75,0,0],[1,0.25,0],[1,0.5,0],[1,0.75,0],[0.75,1,0],[0.5,1,0],[0.25,1,0],[0,0.75,0],[0,0.5,0],[0,0.25,0]];shape=mxgraph.bpmn.task;whiteSpace=wrap;rectStyle=rounded;size=10;html=1;taskMarker=user;fontFamily=Open Sans;fontSize=18;strokeWidth=1;fillColor=#dae8fc;strokeColor=#6c8ebf;container=0;isLoopStandard=1;isLoopMultiParallel=1;" parent="1" vertex="1">
          <mxGeometry x="151.75" y="122.5" width="120" height="80" as="geometry" />
        </mxCell>
        <mxCell id="6-0W6TL2TgXsy6y6iE8s-1" value="" style="rounded=1;whiteSpace=wrap;html=1;" parent="1" vertex="1">
          <mxGeometry x="1690" y="4" width="170" height="996" as="geometry" />
        </mxCell>
        <mxCell id="6-0W6TL2TgXsy6y6iE8s-2" value="&lt;font face=&quot;Open Sans&quot; style=&quot;font-size: 24px;&quot;&gt;Legend&lt;/font&gt;" style="text;html=1;strokeColor=none;fillColor=none;align=center;verticalAlign=middle;whiteSpace=wrap;rounded=0;" parent="1" vertex="1">
          <mxGeometry x="1740" y="30" width="60" height="30" as="geometry" />
        </mxCell>
        <mxCell id="6-0W6TL2TgXsy6y6iE8s-3" value="" style="points=[[0.145,0.145,0],[0.5,0,0],[0.855,0.145,0],[1,0.5,0],[0.855,0.855,0],[0.5,1,0],[0.145,0.855,0],[0,0.5,0]];shape=mxgraph.bpmn.event;html=1;verticalLabelPosition=bottom;labelBackgroundColor=#ffffff;verticalAlign=top;align=center;perimeter=ellipsePerimeter;outlineConnect=0;aspect=fixed;outline=standard;symbol=general;" parent="1" vertex="1">
          <mxGeometry x="1699.07" y="78" width="37.5" height="37.5" as="geometry" />
        </mxCell>
        <mxCell id="6-0W6TL2TgXsy6y6iE8s-5" value="" style="points=[[0.145,0.145,0],[0.5,0,0],[0.855,0.145,0],[1,0.5,0],[0.855,0.855,0],[0.5,1,0],[0.145,0.855,0],[0,0.5,0]];shape=mxgraph.bpmn.event;html=1;verticalLabelPosition=bottom;labelBackgroundColor=#ffffff;verticalAlign=top;align=center;perimeter=ellipsePerimeter;outlineConnect=0;aspect=fixed;outline=end;symbol=terminate2;fontFamily=Open Sans;fontSize=18;strokeWidth=1;" parent="1" vertex="1">
          <mxGeometry x="1698.1299999999999" y="183.62" width="39.38" height="39.38" as="geometry" />
        </mxCell>
        <mxCell id="6-0W6TL2TgXsy6y6iE8s-6" value="" style="points=[[0.145,0.145,0],[0.5,0,0],[0.855,0.145,0],[1,0.5,0],[0.855,0.855,0],[0.5,1,0],[0.145,0.855,0],[0,0.5,0]];shape=mxgraph.bpmn.event;html=1;verticalLabelPosition=bottom;labelBackgroundColor=#ffffff;verticalAlign=top;align=center;perimeter=ellipsePerimeter;outlineConnect=0;aspect=fixed;outline=standard;symbol=message;" parent="1" vertex="1">
          <mxGeometry x="1699.07" y="129.5" width="40" height="40" as="geometry" />
        </mxCell>
        <mxCell id="6-0W6TL2TgXsy6y6iE8s-8" value="" style="shape=mxgraph.bpmn.data;labelPosition=center;verticalLabelPosition=bottom;align=center;verticalAlign=top;size=15;html=1;bpmnTransferType=output;" parent="1" vertex="1">
          <mxGeometry x="1703" y="376" width="37" height="50" as="geometry" />
        </mxCell>
        <mxCell id="6-0W6TL2TgXsy6y6iE8s-10" value="" style="shape=datastore;html=1;labelPosition=center;verticalLabelPosition=bottom;align=center;verticalAlign=top;" parent="1" vertex="1">
          <mxGeometry x="1704.8400000000001" y="510" width="36.07" height="37" as="geometry" />
        </mxCell>
        <mxCell id="6-0W6TL2TgXsy6y6iE8s-11" value="" style="points=[[0.25,0.25,0],[0.5,0,0],[0.75,0.25,0],[1,0.5,0],[0.75,0.75,0],[0.5,1,0],[0.25,0.75,0],[0,0.5,0]];shape=mxgraph.bpmn.gateway2;html=1;verticalLabelPosition=bottom;labelBackgroundColor=#ffffff;verticalAlign=top;align=center;perimeter=rhombusPerimeter;outlineConnect=0;outline=none;symbol=none;gwType=exclusive;" parent="1" vertex="1">
          <mxGeometry x="1701.24" y="566" width="48.76" height="49" as="geometry" />
        </mxCell>
        <mxCell id="6-0W6TL2TgXsy6y6iE8s-12" value="" style="points=[[0.25,0,0],[0.5,0,0],[0.75,0,0],[1,0.25,0],[1,0.5,0],[1,0.75,0],[0.75,1,0],[0.5,1,0],[0.25,1,0],[0,0.75,0],[0,0.5,0],[0,0.25,0]];shape=mxgraph.bpmn.task;whiteSpace=wrap;rectStyle=rounded;size=10;html=1;container=1;expand=0;collapsible=0;taskMarker=abstract;isLoopStandard=1;" parent="1" vertex="1">
          <mxGeometry x="1699.54" y="682" width="50.93" height="30" as="geometry" />
        </mxCell>
        <mxCell id="6-0W6TL2TgXsy6y6iE8s-13" value="" style="points=[[0.25,0,0],[0.5,0,0],[0.75,0,0],[1,0.25,0],[1,0.5,0],[1,0.75,0],[0.75,1,0],[0.5,1,0],[0.25,1,0],[0,0.75,0],[0,0.5,0],[0,0.25,0]];shape=mxgraph.bpmn.task;whiteSpace=wrap;rectStyle=rounded;size=10;html=1;container=1;expand=0;collapsible=0;taskMarker=abstract;isLoopMultiParallel=1;" parent="1" vertex="1">
          <mxGeometry x="1700" y="731" width="50.47" height="30" as="geometry" />
        </mxCell>
        <mxCell id="6-0W6TL2TgXsy6y6iE8s-15" value="" style="points=[[0.25,0,0],[0.5,0,0],[0.75,0,0],[1,0.25,0],[1,0.5,0],[1,0.75,0],[0.75,1,0],[0.5,1,0],[0.25,1,0],[0,0.75,0],[0,0.5,0],[0,0.25,0]];shape=mxgraph.bpmn.task;whiteSpace=wrap;rectStyle=rounded;size=10;html=1;container=1;expand=0;collapsible=0;taskMarker=user;" parent="1" vertex="1">
          <mxGeometry x="1701.24" y="870" width="50.46" height="27.5" as="geometry" />
        </mxCell>
        <mxCell id="6-0W6TL2TgXsy6y6iE8s-16" value="" style="points=[[0.25,0,0],[0.5,0,0],[0.75,0,0],[1,0.25,0],[1,0.5,0],[1,0.75,0],[0.75,1,0],[0.5,1,0],[0.25,1,0],[0,0.75,0],[0,0.5,0],[0,0.25,0]];shape=mxgraph.bpmn.task;whiteSpace=wrap;rectStyle=rounded;size=10;html=1;container=1;expand=0;collapsible=0;taskMarker=manual;" parent="1" vertex="1">
          <mxGeometry x="1700" y="825" width="50.93" height="30" as="geometry" />
        </mxCell>
        <mxCell id="6-0W6TL2TgXsy6y6iE8s-18" value="" style="points=[[0.25,0,0],[0.5,0,0],[0.75,0,0],[1,0.25,0],[1,0.5,0],[1,0.75,0],[0.75,1,0],[0.5,1,0],[0.25,1,0],[0,0.75,0],[0,0.5,0],[0,0.25,0]];shape=mxgraph.bpmn.task;whiteSpace=wrap;rectStyle=rounded;size=10;html=1;container=1;expand=0;collapsible=0;taskMarker=service;" parent="1" vertex="1">
          <mxGeometry x="1701.24" y="911.5" width="50" height="31.5" as="geometry" />
        </mxCell>
        <mxCell id="6-0W6TL2TgXsy6y6iE8s-19" value="" style="points=[[0.25,0,0],[0.5,0,0],[0.75,0,0],[1,0.25,0],[1,0.5,0],[1,0.75,0],[0.75,1,0],[0.5,1,0],[0.25,1,0],[0,0.75,0],[0,0.5,0],[0,0.25,0]];shape=mxgraph.bpmn.task;whiteSpace=wrap;rectStyle=rounded;size=10;html=1;container=1;expand=0;collapsible=0;taskMarker=script;" parent="1" vertex="1">
          <mxGeometry x="1699.92" y="956" width="52.17" height="30" as="geometry" />
        </mxCell>
        <mxCell id="6-0W6TL2TgXsy6y6iE8s-20" value="" style="shape=mxgraph.bpmn.data;labelPosition=center;verticalLabelPosition=bottom;align=center;verticalAlign=top;size=15;html=1;bpmnTransferType=none;isCollection=1;" parent="1" vertex="1">
          <mxGeometry x="1700.57" y="306" width="37" height="54" as="geometry" />
        </mxCell>
        <mxCell id="6-0W6TL2TgXsy6y6iE8s-21" value="" style="shape=mxgraph.bpmn.data;labelPosition=center;verticalLabelPosition=bottom;align=center;verticalAlign=top;size=15;html=1;bpmnTransferType=input;" parent="1" vertex="1">
          <mxGeometry x="1703.91" y="444" width="37" height="50" as="geometry" />
        </mxCell>
        <mxCell id="6-0W6TL2TgXsy6y6iE8s-24" value="" style="points=[[0.25,0,0],[0.5,0,0],[0.75,0,0],[1,0.25,0],[1,0.5,0],[1,0.75,0],[0.75,1,0],[0.5,1,0],[0.25,1,0],[0,0.75,0],[0,0.5,0],[0,0.25,0]];shape=mxgraph.bpmn.task;whiteSpace=wrap;rectStyle=rounded;size=10;html=1;container=1;expand=0;collapsible=0;taskMarker=abstract;isLoopSub=1;" parent="1" vertex="1">
          <mxGeometry x="1699.92" y="633" width="50.93" height="30" as="geometry" />
        </mxCell>
        <mxCell id="6-0W6TL2TgXsy6y6iE8s-25" value="" style="shape=mxgraph.bpmn.data;labelPosition=center;verticalLabelPosition=bottom;align=center;verticalAlign=top;size=15;html=1;" parent="1" vertex="1">
          <mxGeometry x="1700.91" y="237" width="39.09" height="55" as="geometry" />
        </mxCell>
        <mxCell id="6-0W6TL2TgXsy6y6iE8s-17" value="" style="points=[[0.25,0,0],[0.5,0,0],[0.75,0,0],[1,0.25,0],[1,0.5,0],[1,0.75,0],[0.75,1,0],[0.5,1,0],[0.25,1,0],[0,0.75,0],[0,0.5,0],[0,0.25,0]];shape=mxgraph.bpmn.task;whiteSpace=wrap;rectStyle=rounded;size=10;html=1;container=1;expand=0;collapsible=0;taskMarker=abstract;isAdHoc=1;" parent="1" vertex="1">
          <mxGeometry x="1699.24" y="779" width="51.71" height="30" as="geometry" />
        </mxCell>
        <mxCell id="YkJWDijcgI-i0E84Un1S-1" value="&lt;font face=&quot;Open Sans&quot; style=&quot;font-size: 16px;&quot;&gt;Start Node&lt;/font&gt;" style="text;html=1;strokeColor=none;fillColor=none;align=center;verticalAlign=middle;whiteSpace=wrap;rounded=0;" vertex="1" parent="1">
          <mxGeometry x="1740.91" y="81.75" width="85" height="30" as="geometry" />
        </mxCell>
        <mxCell id="YkJWDijcgI-i0E84Un1S-2" value="&lt;font face=&quot;Open Sans&quot; style=&quot;font-size: 16px;&quot;&gt;Message Start&lt;/font&gt;" style="text;html=1;strokeColor=none;fillColor=none;align=center;verticalAlign=middle;whiteSpace=wrap;rounded=0;" vertex="1" parent="1">
          <mxGeometry x="1745" y="134.5" width="95" height="30" as="geometry" />
        </mxCell>
        <mxCell id="YkJWDijcgI-i0E84Un1S-3" value="&lt;font face=&quot;Open Sans&quot; style=&quot;font-size: 16px;&quot;&gt;Terminate&lt;/font&gt;" style="text;html=1;strokeColor=none;fillColor=none;align=center;verticalAlign=middle;whiteSpace=wrap;rounded=0;" vertex="1" parent="1">
          <mxGeometry x="1740.91" y="188.31" width="85" height="30" as="geometry" />
        </mxCell>
        <mxCell id="YkJWDijcgI-i0E84Un1S-4" value="&lt;font face=&quot;Open Sans&quot; style=&quot;font-size: 16px;&quot;&gt;Data Object&lt;/font&gt;" style="text;html=1;strokeColor=none;fillColor=none;align=center;verticalAlign=middle;whiteSpace=wrap;rounded=0;" vertex="1" parent="1">
          <mxGeometry x="1745" y="249.5" width="85" height="30" as="geometry" />
        </mxCell>
        <mxCell id="YkJWDijcgI-i0E84Un1S-5" value="&lt;font face=&quot;Open Sans&quot; style=&quot;font-size: 16px;&quot;&gt;Data Object Collection&lt;/font&gt;" style="text;html=1;strokeColor=none;fillColor=none;align=center;verticalAlign=middle;whiteSpace=wrap;rounded=0;" vertex="1" parent="1">
          <mxGeometry x="1745" y="318" width="85" height="30" as="geometry" />
        </mxCell>
        <mxCell id="YkJWDijcgI-i0E84Un1S-6" value="&lt;font face=&quot;Open Sans&quot; style=&quot;font-size: 16px;&quot;&gt;Data Output&lt;/font&gt;" style="text;html=1;strokeColor=none;fillColor=none;align=center;verticalAlign=middle;whiteSpace=wrap;rounded=0;" vertex="1" parent="1">
          <mxGeometry x="1755" y="386" width="85" height="30" as="geometry" />
        </mxCell>
        <mxCell id="YkJWDijcgI-i0E84Un1S-7" value="&lt;font face=&quot;Open Sans&quot; style=&quot;font-size: 16px;&quot;&gt;Data Input&lt;/font&gt;" style="text;html=1;strokeColor=none;fillColor=none;align=center;verticalAlign=middle;whiteSpace=wrap;rounded=0;" vertex="1" parent="1">
          <mxGeometry x="1750" y="454" width="85" height="30" as="geometry" />
        </mxCell>
        <mxCell id="YkJWDijcgI-i0E84Un1S-8" value="&lt;font face=&quot;Open Sans&quot;&gt;&lt;span style=&quot;font-size: 16px;&quot;&gt;Data Store&lt;/span&gt;&lt;/font&gt;" style="text;html=1;strokeColor=none;fillColor=none;align=center;verticalAlign=middle;whiteSpace=wrap;rounded=0;" vertex="1" parent="1">
          <mxGeometry x="1750" y="513.5" width="85" height="30" as="geometry" />
        </mxCell>
        <mxCell id="YkJWDijcgI-i0E84Un1S-9" value="&lt;font face=&quot;Open Sans&quot; style=&quot;font-size: 16px;&quot;&gt;Exclusive Gateway&lt;/font&gt;" style="text;html=1;strokeColor=none;fillColor=none;align=center;verticalAlign=middle;whiteSpace=wrap;rounded=0;" vertex="1" parent="1">
          <mxGeometry x="1750" y="575.5" width="85" height="30" as="geometry" />
        </mxCell>
        <mxCell id="YkJWDijcgI-i0E84Un1S-10" value="&lt;font face=&quot;Open Sans&quot; style=&quot;font-size: 16px;&quot;&gt;Sub-process&lt;/font&gt;" style="text;html=1;strokeColor=none;fillColor=none;align=center;verticalAlign=middle;whiteSpace=wrap;rounded=0;" vertex="1" parent="1">
          <mxGeometry x="1760" y="633" width="85" height="30" as="geometry" />
        </mxCell>
        <mxCell id="YkJWDijcgI-i0E84Un1S-11" value="&lt;font face=&quot;Open Sans&quot; style=&quot;font-size: 16px;&quot;&gt;Loop&lt;/font&gt;" style="text;html=1;strokeColor=none;fillColor=none;align=center;verticalAlign=middle;whiteSpace=wrap;rounded=0;" vertex="1" parent="1">
          <mxGeometry x="1736.57" y="682" width="85" height="30" as="geometry" />
        </mxCell>
        <mxCell id="YkJWDijcgI-i0E84Un1S-12" value="&lt;font face=&quot;Open Sans&quot; style=&quot;font-size: 16px;&quot;&gt;Multi-instance&lt;/font&gt;" style="text;html=1;strokeColor=none;fillColor=none;align=center;verticalAlign=middle;whiteSpace=wrap;rounded=0;" vertex="1" parent="1">
          <mxGeometry x="1750.95" y="731" width="115" height="30" as="geometry" />
        </mxCell>
        <mxCell id="YkJWDijcgI-i0E84Un1S-13" value="&lt;font face=&quot;Open Sans&quot; style=&quot;font-size: 16px;&quot;&gt;Adhoc Activity&lt;/font&gt;" style="text;html=1;strokeColor=none;fillColor=none;align=center;verticalAlign=middle;whiteSpace=wrap;rounded=0;" vertex="1" parent="1">
          <mxGeometry x="1751.24" y="779" width="115" height="30" as="geometry" />
        </mxCell>
        <mxCell id="YkJWDijcgI-i0E84Un1S-14" value="&lt;font face=&quot;Open Sans&quot;&gt;&lt;span style=&quot;font-size: 16px;&quot;&gt;Manual&lt;/span&gt;&lt;/font&gt;" style="text;html=1;strokeColor=none;fillColor=none;align=center;verticalAlign=middle;whiteSpace=wrap;rounded=0;" vertex="1" parent="1">
          <mxGeometry x="1740.91" y="825" width="85" height="30" as="geometry" />
        </mxCell>
        <mxCell id="YkJWDijcgI-i0E84Un1S-15" value="&lt;font face=&quot;Open Sans&quot; style=&quot;font-size: 16px;&quot;&gt;User Activity&lt;/font&gt;" style="text;html=1;strokeColor=none;fillColor=none;align=center;verticalAlign=middle;whiteSpace=wrap;rounded=0;" vertex="1" parent="1">
          <mxGeometry x="1755" y="867.5" width="95" height="30" as="geometry" />
        </mxCell>
        <mxCell id="YkJWDijcgI-i0E84Un1S-16" value="&lt;font face=&quot;Open Sans&quot; style=&quot;font-size: 16px;&quot;&gt;Service&lt;/font&gt;" style="text;html=1;strokeColor=none;fillColor=none;align=center;verticalAlign=middle;whiteSpace=wrap;rounded=0;" vertex="1" parent="1">
          <mxGeometry x="1740.91" y="910" width="85" height="30" as="geometry" />
        </mxCell>
        <mxCell id="YkJWDijcgI-i0E84Un1S-17" value="&lt;font face=&quot;Open Sans&quot; style=&quot;font-size: 16px;&quot;&gt;Script&lt;/font&gt;" style="text;html=1;strokeColor=none;fillColor=none;align=center;verticalAlign=middle;whiteSpace=wrap;rounded=0;" vertex="1" parent="1">
          <mxGeometry x="1736.57" y="956" width="85" height="30" as="geometry" />
        </mxCell>
        <mxCell id="YkJWDijcgI-i0E84Un1S-20" style="edgeStyle=orthogonalEdgeStyle;rounded=0;orthogonalLoop=1;jettySize=auto;html=1;exitX=0.41;exitY=0.986;exitDx=0;exitDy=0;exitPerimeter=0;entryX=0.305;entryY=0.031;entryDx=0;entryDy=0;entryPerimeter=0;dashed=1;" edge="1" parent="1" source="wIb-IDq65dvI-1YJ-4g0-32" target="wIb-IDq65dvI-1YJ-4g0-39">
          <mxGeometry relative="1" as="geometry" />
        </mxCell>
      </root>
    </mxGraphModel>
  </diagram>
</mxfile>
